<svg width="178" height="100" viewBox="0 0 178 100" fill="none" xmlns="http://www.w3.org/2000/svg">
<path d="M53.7299 45.71C54.0899 45.71 54.2099 45.84 54.2099 46.19V54.11H58.2799C58.6299 54.11 58.7599 54.24 58.7599 54.59V55.29C58.7599 55.64 58.6299 55.77 58.2799 55.77H52.9199C52.5699 55.77 52.4299 55.64 52.4299 55.29V46.19C52.4299 45.84 52.5699 45.71 52.9199 45.71H53.7299Z" fill="#7F7C76"/>
<path d="M62.3101 49.2C62.3101 46.89 63.7701 45.5 66.3101 45.5C68.8501 45.5 70.3101 46.89 70.3101 49.2V52.28C70.3101 54.59 68.8401 55.98 66.3101 55.98C63.7801 55.98 62.3101 54.59 62.3101 52.28V49.2ZM68.6301 49.2C68.6301 47.9 67.8201 47.2 66.3601 47.2C64.9001 47.2 64.1001 47.91 64.1001 49.2V52.3C64.1001 53.61 64.9001 54.3 66.3601 54.3C67.8201 54.3 68.6301 53.58 68.6301 52.3V49.2Z" fill="#7F7C76"/>
<path d="M82.2199 50.26C82.6099 50.26 82.6999 50.39 82.6999 50.74V52.64C82.7105 53.0875 82.6208 53.5317 82.4374 53.9401C82.2539 54.3485 81.9815 54.7106 81.6399 55C80.7916 55.6755 79.722 56.0106 78.6399 55.94C76.0499 55.94 74.6399 54.55 74.6399 52.24V49.14C74.6399 46.86 76.0999 45.46 78.6399 45.46C80.6399 45.46 81.9399 46.25 82.4899 47.83C82.5207 47.8893 82.5372 47.9551 82.5381 48.0219C82.539 48.0888 82.5243 48.1549 82.4952 48.2151C82.4661 48.2753 82.4233 48.3279 82.3703 48.3686C82.3173 48.4094 82.2555 48.4372 82.1899 48.45L81.4099 48.72C81.0699 48.84 80.9299 48.77 80.8099 48.42C80.6442 47.9928 80.3409 47.6331 79.9479 47.3977C79.5549 47.1622 79.0947 47.0645 78.6399 47.12C77.1699 47.12 76.3699 47.83 76.3699 49.12V52.3C76.3699 53.61 77.1799 54.3 78.6399 54.3C80.0999 54.3 80.9999 53.63 80.9999 52.65V51.91H78.8299C78.4699 51.91 78.3399 51.77 78.3399 51.42V50.74C78.3399 50.39 78.4699 50.26 78.8299 50.26H82.2199Z" fill="#7F7C76"/>
<path d="M86.8301 49.2C86.8301 46.89 88.2901 45.5 90.8301 45.5C93.3701 45.5 94.8301 46.89 94.8301 49.2V52.28C94.8301 54.59 93.3601 55.98 90.8301 55.98C88.3001 55.98 86.8301 54.59 86.8301 52.28V49.2ZM93.1401 49.2C93.1401 47.9 92.3301 47.2 90.8801 47.2C89.4301 47.2 88.6101 47.91 88.6101 49.2V52.3C88.6101 53.61 89.4201 54.3 90.8801 54.3C92.3401 54.3 93.1401 53.58 93.1401 52.3V49.2Z" fill="#7F7C76"/>
<path d="M99.54 46C99.54 45.78 99.61 45.71 99.83 45.71H100.29C100.51 45.71 100.56 45.78 100.56 46V55.48C100.56 55.7 100.56 55.77 100.29 55.77H99.83C99.61 55.77 99.54 55.7 99.54 55.48V46Z" fill="#7F7C76"/>
<path d="M109.67 45.71C110.503 45.71 111.301 46.0408 111.89 46.6296C112.479 47.2185 112.81 48.0172 112.81 48.85C112.81 49.6827 112.479 50.4814 111.89 51.0703C111.301 51.6591 110.503 51.99 109.67 51.99H106.67V55.48C106.67 55.7 106.62 55.77 106.41 55.77H105.94C105.73 55.77 105.65 55.7 105.65 55.48V46C105.65 45.78 105.73 45.71 105.94 45.71H109.67ZM109.58 51C109.866 51 110.15 50.9436 110.414 50.834C110.679 50.7245 110.919 50.5639 111.121 50.3615C111.324 50.159 111.484 49.9187 111.594 49.6542C111.704 49.3897 111.76 49.1062 111.76 48.82C111.76 48.5337 111.704 48.2502 111.594 47.9857C111.484 47.7212 111.324 47.4809 111.121 47.2785C110.919 47.076 110.679 46.9155 110.414 46.8059C110.15 46.6963 109.866 46.64 109.58 46.64H106.58V51H109.58Z" fill="#7F7C76"/>
<path d="M120.62 45.5099C121.392 45.4247 122.171 45.5908 122.841 45.9836C123.511 46.3763 124.037 46.9747 124.34 47.6899C124.42 47.8499 124.34 47.98 124.18 48.06L123.74 48.2599C123.56 48.3299 123.49 48.32 123.38 48.13C123.153 47.5991 122.764 47.1541 122.268 46.8593C121.772 46.5645 121.195 46.4351 120.62 46.49C118.93 46.49 118.01 47.16 118.01 48.36C118 48.7267 118.123 49.0846 118.357 49.3676C118.59 49.6507 118.918 49.8397 119.28 49.9C119.818 50.0754 120.375 50.1829 120.94 50.22C121.623 50.2564 122.297 50.3946 122.94 50.63C123.433 50.7858 123.857 51.1065 124.141 51.5381C124.425 51.9696 124.552 52.4858 124.5 52.9999C124.5 54.8699 123.14 55.9999 120.64 55.9999C119.82 56.0938 118.993 55.9037 118.296 55.4616C117.599 55.0194 117.074 54.3518 116.81 53.5699C116.792 53.5343 116.783 53.4952 116.782 53.4554C116.781 53.4157 116.789 53.3762 116.806 53.3399C116.822 53.3036 116.846 53.2713 116.876 53.2454C116.906 53.2195 116.942 53.2006 116.98 53.1899L117.42 53.0299C117.455 53.0158 117.492 53.009 117.529 53.01C117.567 53.011 117.604 53.0198 117.637 53.0358C117.671 53.0517 117.701 53.0746 117.726 53.1029C117.751 53.1311 117.769 53.1642 117.78 53.2C118.004 53.7649 118.401 54.2439 118.916 54.5675C119.43 54.8912 120.034 55.0426 120.64 54.9999C122.53 54.9999 123.46 54.3399 123.46 52.9999C123.478 52.6477 123.37 52.3006 123.155 52.0205C122.941 51.7403 122.635 51.5453 122.29 51.47C121.773 51.3156 121.239 51.2216 120.7 51.1899L119.62 51.0499C119.282 50.9782 118.948 50.8881 118.62 50.7799C118.296 50.682 117.994 50.5225 117.73 50.31C117.465 50.0697 117.256 49.7741 117.117 49.444C116.979 49.1139 116.915 48.7575 116.93 48.4C117 46.65 118.31 45.5099 120.62 45.5099Z" fill="#7F7C76"/>
<path d="M129.89 52.35C129.933 53.0571 130.243 53.7214 130.759 54.2071C131.275 54.6928 131.957 54.9633 132.665 54.9633C133.374 54.9633 134.055 54.6928 134.571 54.2071C135.087 53.7214 135.398 53.0571 135.44 52.35V46C135.44 45.78 135.51 45.71 135.73 45.71H136.19C136.41 45.71 136.48 45.78 136.48 46V52.34C136.48 54.61 135.14 55.98 132.67 55.98C130.2 55.98 128.86 54.61 128.86 52.34V46C128.86 45.78 128.93 45.71 129.14 45.71H129.61C129.82 45.71 129.89 45.78 129.89 46V52.35Z" fill="#7F7C76"/>
<path d="M150.28 45.71C150.5 45.71 150.57 45.78 150.57 46V55.48C150.57 55.7 150.5 55.77 150.28 55.77H149.86C149.65 55.77 149.58 55.7 149.58 55.48V49.71C149.58 48.8704 149.637 48.0318 149.75 47.2H149.69C149.378 47.9607 149.013 48.6991 148.6 49.41L146.45 53.2C146.424 53.2657 146.378 53.322 146.319 53.3612C146.26 53.4005 146.191 53.421 146.12 53.42H145.84C145.768 53.4203 145.698 53.3997 145.637 53.3606C145.577 53.3216 145.529 53.2657 145.5 53.2L143.32 49.37C142.933 48.6692 142.599 47.9405 142.32 47.19H142.26C142.362 48.0295 142.416 48.8743 142.42 49.72V55.48C142.42 55.7 142.35 55.77 142.13 55.77H141.74C141.52 55.77 141.45 55.7 141.45 55.48V46C141.45 45.78 141.52 45.71 141.74 45.71H142.1C142.182 45.7023 142.265 45.7203 142.336 45.7615C142.408 45.8027 142.465 45.865 142.5 45.94L146 52.16L149.48 46C149.59 45.79 149.65 45.76 149.87 45.76L150.28 45.71Z" fill="#7F7C76"/>
<path d="M35.94 53.55V60.78C35.94 61.0572 35.8299 61.323 35.6339 61.5189C35.4379 61.7149 35.1721 61.825 34.895 61.825C34.6178 61.825 34.352 61.7149 34.156 61.5189C33.9601 61.323 33.85 61.0572 33.85 60.78V53.56C34.1409 53.7725 34.4898 53.8911 34.85 53.9C35.2426 53.9112 35.6273 53.7877 35.94 53.55V53.55ZM44.84 51.46C44.5747 51.46 44.3204 51.5654 44.1329 51.7529C43.9453 51.9404 43.84 52.1948 43.84 52.46V53.72C43.84 53.9972 43.9501 54.263 44.146 54.4589C44.342 54.6549 44.6078 54.765 44.885 54.765C45.1621 54.765 45.4279 54.6549 45.6239 54.4589C45.8199 54.263 45.93 53.9972 45.93 53.72V52.51C45.9377 52.3666 45.9146 52.2232 45.862 52.0896C45.8094 51.956 45.7286 51.8352 45.6252 51.7356C45.5218 51.636 45.3981 51.5598 45.2626 51.5123C45.1271 51.4647 44.983 51.4469 44.84 51.46V51.46ZM31.58 56.29C31.2201 56.2792 30.8718 56.1608 30.58 55.95V63.2C30.58 63.4785 30.6906 63.7456 30.8875 63.9425C31.0844 64.1394 31.3515 64.25 31.63 64.25C31.9084 64.25 32.1755 64.1394 32.3724 63.9425C32.5693 63.7456 32.68 63.4785 32.68 63.2V56C32.3534 56.2111 31.9681 56.3127 31.58 56.29V56.29ZM41.58 49.29C41.4445 49.2832 41.3091 49.3041 41.1819 49.3513C41.0548 49.3985 40.9385 49.4711 40.8403 49.5646C40.7421 49.6582 40.6639 49.7707 40.6106 49.8954C40.5572 50.0201 40.5298 50.1544 40.53 50.29V55.86C40.53 56.1385 40.6406 56.4056 40.8375 56.6025C41.0344 56.7994 41.3015 56.91 41.58 56.91C41.8584 56.91 42.1255 56.7994 42.3224 56.6025C42.5193 56.4056 42.63 56.1385 42.63 55.86V50.36C42.6379 50.2157 42.6145 50.0714 42.5614 49.937C42.5082 49.8026 42.4265 49.6813 42.322 49.5815C42.2174 49.4817 42.0925 49.4057 41.9557 49.3589C41.819 49.312 41.6738 49.2953 41.53 49.31L41.58 49.29ZM38.26 51.43C37.8833 51.4274 37.5166 51.3087 37.21 51.09V58.36C37.21 58.6385 37.3206 58.9056 37.5175 59.1025C37.7144 59.2994 37.9815 59.41 38.26 59.41C38.5384 59.41 38.8055 59.2994 39.0024 59.1025C39.1993 58.9056 39.31 58.6385 39.31 58.36V51.1C38.9927 51.3363 38.6054 51.4595 38.21 51.45L38.26 51.43ZM29.31 57V36.69C29.3073 36.4424 29.2071 36.2059 29.0311 36.0318C28.8551 35.8577 28.6175 35.76 28.37 35.76H28.15C27.9024 35.76 27.6648 35.8577 27.4888 36.0318C27.3128 36.2059 27.2126 36.4424 27.21 36.69V57C27.21 57.2493 27.309 57.4884 27.4853 57.6647C27.6616 57.841 27.9007 57.94 28.15 57.94H28.37C28.6193 57.94 28.8584 57.841 29.0346 57.6647C29.2109 57.4884 29.31 57.2493 29.31 57V57ZM31.69 55.52H31.47C31.2207 55.52 30.9816 55.421 30.8053 55.2447C30.629 55.0684 30.53 54.8293 30.53 54.58V39.11C30.5326 38.8624 30.6328 38.6259 30.8088 38.4518C30.9848 38.2777 31.2224 38.18 31.47 38.18H31.69C31.9375 38.18 32.1751 38.2777 32.3511 38.4518C32.5271 38.6259 32.6273 38.8624 32.63 39.11V54.6C32.63 54.8493 32.5309 55.0884 32.3546 55.2647C32.1784 55.441 31.9393 55.54 31.69 55.54V55.52ZM35 53.14H34.77C34.5233 53.14 34.2868 53.042 34.1124 52.8676C33.9379 52.6932 33.84 52.4567 33.84 52.21V41.51C33.8386 41.387 33.8617 41.265 33.9079 41.151C33.954 41.0371 34.0223 40.9333 34.1088 40.8459C34.1953 40.7585 34.2982 40.6891 34.4117 40.6417C34.5252 40.5944 34.647 40.57 34.77 40.57H35C35.2475 40.5726 35.4841 40.6728 35.6582 40.8488C35.8323 41.0248 35.93 41.2624 35.93 41.51V52.21C35.93 52.4567 35.832 52.6932 35.6576 52.8676C35.4832 53.042 35.2466 53.14 35 53.14V53.14ZM38.31 50.69H38.1C37.8524 50.69 37.6148 50.5924 37.4388 50.4182C37.2628 50.2441 37.1626 50.0076 37.16 49.76V44C37.1517 43.8716 37.17 43.7429 37.2135 43.6218C37.2571 43.5008 37.325 43.3899 37.4131 43.2962C37.5013 43.2025 37.6077 43.1278 37.7258 43.0768C37.844 43.0259 37.9713 42.9997 38.1 43H38.32C38.5693 43 38.8084 43.099 38.9846 43.2753C39.1609 43.4516 39.26 43.6907 39.26 43.94V49.74C39.2613 49.8643 39.2379 49.9876 39.1913 50.1028C39.1447 50.218 39.0756 50.3228 38.9882 50.4112C38.9008 50.4995 38.7967 50.5697 38.682 50.6175C38.5673 50.6654 38.4443 50.69 38.32 50.69H38.31ZM41.63 48.54H41.41C41.1607 48.54 40.9216 48.441 40.7453 48.2647C40.569 48.0884 40.47 47.8493 40.47 47.6V46.11C40.4726 45.8624 40.5728 45.6259 40.7488 45.4518C40.9248 45.2777 41.1624 45.18 41.41 45.18H41.63C41.8775 45.18 42.1151 45.2777 42.2911 45.4518C42.4671 45.6259 42.5673 45.8624 42.57 46.11V47.6C42.57 47.8476 42.4723 48.0852 42.2982 48.2612C42.1241 48.4372 41.8875 48.5374 41.64 48.54H41.63Z" fill="#7F7C76"/>
</svg>
