<svg width="177" height="100" viewBox="0 0 177 100" fill="none" xmlns="http://www.w3.org/2000/svg">
<path fill-rule="evenodd" clip-rule="evenodd" d="M47 21H130.726C146.742 21 159.726 33.9837 159.726 50C159.726 66.0163 146.742 79 130.726 79H47C30.9837 79 18 66.0163 18 50C18 33.9837 30.9837 21 47 21ZM47 23.8065C32.5337 23.8065 20.8065 35.5337 20.8065 50C20.8065 64.4663 32.5337 76.1936 47 76.1936H130.726C145.192 76.1936 156.919 64.4663 156.919 50C156.919 35.5337 145.192 23.8065 130.726 23.8065H47Z" fill="#7F7C76"/>
<path fill-rule="evenodd" clip-rule="evenodd" d="M137.597 65.1597C139.703 61.4209 141.094 56.0668 141.094 50C141.094 43.9332 139.703 38.5792 137.597 34.8403C135.441 31.0143 132.902 29.4194 130.726 29.4194C128.55 29.4194 126.01 31.0143 123.855 34.8403C121.749 38.5792 120.358 43.9332 120.358 50C120.358 56.0668 121.749 61.4209 123.855 65.1597C126.01 68.9858 128.55 70.5807 130.726 70.5807C132.902 70.5807 135.441 68.9858 137.597 65.1597ZM130.726 73.3871C138.002 73.3871 143.901 62.9164 143.901 50C143.901 37.0837 138.002 26.6129 130.726 26.6129C123.45 26.6129 117.551 37.0837 117.551 50C117.551 62.9164 123.45 73.3871 130.726 73.3871Z" fill="#7F7C76"/>
<path fill-rule="evenodd" clip-rule="evenodd" d="M129.323 71.2043V28.328H132.129V71.2043H129.323Z" fill="#7F7C76"/>
<path d="M88.7298 39.4544C89.3343 39.4459 89.8483 39.3329 89.8399 38.7115V38.6183C89.8483 37.9997 89.3343 37.8867 88.7298 37.8783C88.1226 37.8867 87.6085 37.9997 87.617 38.6183V38.7115C87.6085 39.3329 88.1226 39.4459 88.7298 39.4544Z" fill="#7F7C76"/>
<path d="M66.3059 37.8811C66.4867 37.8811 66.6307 38.0251 66.6307 38.2059C66.6307 38.2935 66.5996 38.3697 66.5347 38.4347C66.4725 38.4968 66.3963 38.5279 66.3059 38.5279H64.501V37.8811H66.3059Z" fill="#7F7C76"/>
<path d="M76.7906 37.8726L77.3104 38.994H76.2681L76.7906 37.8726Z" fill="#7F7C76"/>
<path d="M100.5 38.994L99.98 37.8726L99.4575 38.994H100.5Z" fill="#7F7C76"/>
<path d="M63.0566 61.4855L62.2884 59.8279L61.5159 61.4855H63.0566Z" fill="#7F7C76"/>
<path d="M80.2971 62.0367C80.8649 62.0367 81.1864 61.5732 81.1864 61.0095C81.1864 60.4417 80.8649 59.9824 80.2971 59.9824H77.9004V62.0367H80.2971Z" fill="#7F7C76"/>
<path d="M87.2574 59.8279L88.0257 61.4855H86.4849L87.2574 59.8279Z" fill="#7F7C76"/>
<path d="M97.0737 60.3207C97.0737 60.0535 96.8608 59.8405 96.5936 59.8405H93.9255V60.7967H96.5936C96.7272 60.7967 96.8399 60.7508 96.9318 60.6589C97.0278 60.5629 97.0737 60.4501 97.0737 60.3207Z" fill="#7F7C76"/>
<path d="M105.421 61.0095C105.421 61.5732 105.099 62.0367 104.531 62.0367H102.134V59.9824H104.531C105.099 59.9824 105.421 60.4417 105.421 61.0095Z" fill="#7F7C76"/>
<path d="M50.1274 44.118L52.912 50.5472L55.8331 44.118H60.4605V54.8333H56.9934V49.0457L54.4545 54.8333H51.3422L48.8306 49.0457V54.8333H45.3499V44.118H50.1274Z" fill="#7F7C76"/>
<path d="M74.6668 54.8333V52.1715H66.9818V50.7792H74.3529V48.1721H66.9818V46.7934H74.5713V44.118H63.3782V54.8333H74.6668Z" fill="#7F7C76"/>
<path d="M82.8445 54.9971C80.5649 54.9971 78.6676 54.3146 77.6029 52.9359C76.975 52.1306 76.5928 50.9157 76.5928 49.4961C76.5928 48.213 76.9204 47.0664 77.6302 46.1519C78.7085 44.8141 80.6605 43.9269 83.568 43.9269C86.9122 43.9269 88.8778 44.9506 89.7241 46.6706C89.8447 46.9202 89.9326 47.2297 89.9846 47.5098C90.015 47.6737 90.0331 47.8277 90.0381 47.9537H86.5027C86.4618 47.7626 86.2707 47.4759 86.025 47.2712C85.6428 46.9299 84.8238 46.6569 83.6362 46.6569C82.3121 46.6569 81.4112 46.9163 80.8789 47.5169C80.5103 47.94 80.3192 48.5816 80.3192 49.5234C80.3192 50.4243 80.5103 51.0249 80.8379 51.4481C81.3293 52.0214 82.2439 52.3899 83.6635 52.3899C85.0285 52.3899 86.0796 51.9804 86.4754 51.5163C86.5436 51.4376 86.6058 51.3388 86.658 51.2368C86.7417 51.0735 86.7999 50.9021 86.8167 50.7929H83.0083V48.486H90.1336V54.8333H87.1989L87.1033 53.7959C86.975 53.9021 86.8358 54.0031 86.6854 54.098C85.8112 54.6494 84.5564 54.9971 82.8445 54.9971Z" fill="#7F7C76"/>
<path d="M80.7632 49.5234C80.7632 48.6327 80.9453 48.1176 81.2125 47.8099C81.6144 47.3576 82.3477 47.1008 83.6363 47.1008C84.7821 47.1008 85.4677 47.3686 85.7294 47.6023L85.7351 47.6073L85.7409 47.6122C85.8309 47.6872 85.9132 47.7796 85.9754 47.8697C86.0369 47.9587 86.0615 48.0205 86.0676 48.0421H82.5645V51.2368H86.1304C86.0027 51.3811 85.7286 51.5612 85.2931 51.7059C84.8596 51.8499 84.3033 51.946 83.6636 51.946C82.3148 51.946 81.5562 51.5969 81.1823 51.1675C80.9379 50.8471 80.7632 50.3557 80.7632 49.5234Z" fill="#7F7C76"/>
<path d="M98.3901 50.0078L99.4071 48.0662L100.368 50.0078H98.3901Z" fill="#7F7C76"/>
<path fill-rule="evenodd" clip-rule="evenodd" d="M102.243 52.854L103.185 54.8333H107.13L101.724 44.118H97.3153L91.5959 54.8333H95.4589L96.4553 52.854H102.243ZM97.6565 50.4516L99.0079 47.8718L99.4174 46.889L99.7996 47.8581L101.083 50.4516H97.6565Z" fill="#7F7C76"/>
<path fill-rule="evenodd" clip-rule="evenodd" d="M46.9999 73.3871C39.6323 73.3871 33.0604 69.9802 28.7737 64.656H41.0751V63.0968H27.6211C25.614 60.1328 24.2691 56.6839 23.7987 52.9624H41.0751V51.4033H23.6542C23.6267 50.939 23.6128 50.4711 23.6128 50C23.6128 46.9134 24.2107 43.9666 25.2971 41.2688H41.0751V39.7097H25.9925C27.6453 36.3419 30.084 33.4297 33.0697 31.2124H116.796C111.057 35.4742 107.339 42.3028 107.339 50C107.339 54.8526 108.817 59.3601 111.347 63.0968H109.911V64.6559H112.499C116.741 69.9238 123.219 73.3147 130.492 73.3859V73.3871H46.9999ZM86.1369 38.5279C86.1312 37.0902 87.3006 36.6778 88.7298 36.675C90.159 36.675 91.3199 37.093 91.3199 38.5279V38.8047C91.3256 40.2396 90.1562 40.6548 88.7298 40.6576C87.3006 40.6548 86.1312 40.2396 86.1369 38.8047V38.5279ZM44.3278 40.5644V36.7682H45.8079V40.5644H44.3278ZM48.6296 36.7682L50.2961 38.7793V36.7682H51.779V40.5644H50.1125L48.0732 38.2455V40.5644H46.5931V36.7682H48.6296ZM55.5328 40.5701V37.9771H57.2925V36.7739H52.2931V37.9771H54.0528V40.5701H55.5328ZM62.2327 40.5701H57.7897V36.7739H62.2327V37.7455H59.2697V38.2313H62.2327V39.1098H59.2697V39.5956H62.2327V40.5701ZM63.0207 36.771V40.5672H64.5008V39.6408H65.8227L66.5373 40.5672H68.1134L67.2858 39.5024C67.5344 39.3866 67.7349 39.2114 67.8846 38.9827C68.0371 38.751 68.1134 38.4912 68.1134 38.2059C68.1247 37.4207 67.4609 36.7626 66.6785 36.771H63.0207ZM70.6103 36.7682L72.2768 38.7793V36.7682H73.7597V40.5644H72.0932L70.0539 38.2455V40.5644H68.5738V36.7682H70.6103ZM73.8727 40.5701H75.5392L75.8386 39.9204H77.7395L78.0389 40.5701H79.7054L77.6689 36.7739H75.9092L73.8727 40.5701ZM81.965 37.9771V40.5701H80.485V37.9771H78.7253V36.7739H83.7247V37.9771H81.965ZM84.2218 36.7682V40.5644H85.7019V36.7682H84.2218ZM95.4664 38.7793L93.7999 36.7682H91.7634V40.5644H93.2435V38.2455L95.2828 40.5644H96.9493V36.7682H95.4664V38.7793ZM98.7287 40.5701H97.0623L99.0988 36.7739H100.859L102.895 40.5701H101.229L100.929 39.9204H99.0282L98.7287 40.5701ZM103.011 36.7682V40.5644H107.454V39.3611H104.491V36.7682H103.011ZM46.6471 60.045C46.6471 59.5983 47.4822 59.498 48.1628 59.498C48.8476 59.498 49.4279 59.6024 49.6785 60.045H51.9708C51.762 58.2913 50.1294 58.07 48.1628 58.0575C46.192 58.0575 44.3548 58.4417 44.3548 60.045C44.3506 61.4451 46.5419 61.5561 48.1071 61.6354L48.1169 61.6359C48.9979 61.6776 49.6785 61.7152 49.6785 61.9615C49.6785 62.3958 48.8434 62.5085 48.1628 62.5085C47.478 62.5085 46.8976 62.3958 46.6471 61.9615H44.3548C44.5636 63.7027 46.1962 63.9407 48.1628 63.9449C50.1336 63.9449 51.9708 63.5649 51.9708 61.9615C51.9749 60.5573 49.7836 60.4463 48.2184 60.367L48.2087 60.3665C47.3277 60.3248 46.6471 60.2914 46.6471 60.045ZM56.8268 63.8154V59.9824H59.4281V58.2037H52.0376V59.9824H54.6389V63.8154H56.8268ZM60.4385 63.8154H57.975L60.9855 58.2037H63.5868L66.5973 63.8154H64.1338L63.6912 62.8551H60.8811L60.4385 63.8154ZM72.2425 61.1682L69.779 58.1953H66.7685V63.8071H68.9564V60.3791L71.9711 63.8071H74.4346V58.1953H72.2425V61.1682ZM75.7122 63.8154V58.2037H80.7061C82.2468 58.1828 83.3909 59.4772 83.3783 61.0095C83.3909 62.5336 82.2468 63.8363 80.7061 63.8154H75.7122ZM82.9441 63.8154H85.4076L85.8502 62.8551H88.6602L89.1028 63.8154H91.5663L88.5559 58.2037H85.9546L82.9441 63.8154ZM91.7375 63.8113V58.1995H97.1447C98.3013 58.187 99.2825 59.1598 99.2658 60.3206C99.2658 60.7423 99.1531 61.1265 98.9276 61.4688C98.7063 61.8071 98.4099 62.0659 98.0424 62.2371L99.2658 63.8113H96.9359L95.8796 62.4417H93.9255V63.8113H91.7375ZM99.9464 58.2037V63.8154H104.94C106.481 63.8363 107.625 62.5336 107.613 61.0095C107.625 59.4772 106.481 58.1828 104.94 58.2037H99.9464ZM56.5494 55.2772H60.9043V43.6741H55.5471L52.9216 49.4527L50.4188 43.6741H44.9059V55.2772H49.2744V51.1837L51.0509 55.2772H54.7444L56.5494 51.1626V55.2772ZM62.9341 55.2772H75.1105V51.7276H67.4255V51.2231H74.7966V47.7282H67.4255V47.2373H75.015V43.6741H62.9341V55.2772ZM86.7939 55.2772H90.5775V48.0421H90.4858L90.4815 47.9359C90.4659 47.5449 90.3458 46.9374 90.1238 46.4776L90.1231 46.4761L90.1223 46.4746C89.1675 44.534 86.9878 43.483 83.5679 43.483C80.5757 43.483 78.4739 44.3977 77.2845 45.8733L77.2819 45.8764L77.2794 45.8797C76.4964 46.8885 76.1488 48.1374 76.1488 49.4961C76.1488 50.9874 76.5491 52.3061 77.2521 53.2082C78.4338 54.7375 80.4922 55.441 82.8444 55.441C84.4979 55.441 85.7819 55.127 86.7304 54.5883L86.7939 55.2772ZM95.7323 55.2772L96.7287 53.2979H101.963L102.904 55.2772H107.851L101.998 43.6741H97.0489L90.8557 55.2772H95.7323ZM107.806 69.5672H44.2714V68.008H107.806V69.5672Z" fill="#7F7C76"/>
<path d="M119.186 29.6532C122.528 27.754 126.383 26.6543 130.492 26.614V26.6129H47.0001C42.8038 26.6129 38.8656 27.718 35.4607 29.6532H119.186Z" fill="#7F7C76"/>
<path d="M130.726 70.5806C142.092 70.5806 151.306 61.3663 151.306 50C151.306 38.6336 142.092 29.4193 130.726 29.4193C123.108 29.4193 116.457 33.5581 112.898 39.7097H109.911V41.2688H112.084C110.84 43.9194 110.145 46.8785 110.145 50C110.145 54.9754 111.911 59.5384 114.849 63.0968H111.347C108.817 59.3601 107.339 54.8526 107.339 50C107.339 37.0836 117.809 26.6129 130.726 26.6129C143.642 26.6129 154.113 37.0836 154.113 50C154.113 62.9163 143.642 73.3871 130.726 73.3871C123.358 73.3871 116.786 69.9802 112.499 64.6559H116.277C119.993 68.3196 125.095 70.5806 130.726 70.5806Z" fill="#7F7C76"/>
<path d="M136.905 63.0967H112.562V60.2903H138.003C137.678 61.2959 137.309 62.2346 136.905 63.0967Z" fill="#7F7C76"/>
<path d="M138.614 63.0967H149.046V60.2903H139.638C139.336 61.2822 138.992 62.2203 138.614 63.0967Z" fill="#7F7C76"/>
<path d="M139.509 51.4032H108.742V48.5967H139.509C139.526 49.0592 139.535 49.5271 139.535 50C139.535 50.4729 139.526 50.9408 139.509 51.4032Z" fill="#7F7C76"/>
<path d="M141.069 51.4032H152.749V48.5967H141.069C141.086 49.0599 141.094 49.5278 141.094 50C141.094 50.4722 141.086 50.9401 141.069 51.4032Z" fill="#7F7C76"/>
<path d="M138.004 39.7097H112.562V36.9033H136.905C137.309 37.7654 137.678 38.7041 138.004 39.7097Z" fill="#7F7C76"/>
<path d="M139.638 39.7097H149.046V36.9033H138.614C138.992 37.7797 139.336 38.7178 139.638 39.7097Z" fill="#7F7C76"/>
</svg>
