<svg width="177" height="100" viewBox="0 0 177 100" fill="none" xmlns="http://www.w3.org/2000/svg">
<path d="M75.5458 40.621C75.5458 40.4686 75.5458 38.2513 75.5458 38.2513H74.2282C74.2282 38.2513 74.2282 40.4342 74.2282 40.5031C74.2282 40.9062 73.8546 41.1766 73.2253 41.1766C72.5665 41.1766 72.2076 40.916 72.2076 40.4981C72.2076 40.4293 72.2076 38.2513 72.2076 38.2513H70.8752C70.8752 38.2513 70.8752 40.3211 70.8752 40.4981C70.8752 41.6682 71.8339 42.1648 73.1712 42.1648C74.6019 42.1648 75.5458 41.6633 75.5458 40.621Z" fill="#7F7C76"/>
<path d="M79.9832 42.1107V41.0832H77.6332V38.2513H76.3008V42.1107H79.9832Z" fill="#7F7C76"/>
<path d="M83.9431 39.2199V38.2513H79.3364V39.2199H80.9637V42.1107H82.3108V39.2199H83.9431Z" fill="#7F7C76"/>
<path d="M85.7143 42.1107V38.2513H84.3623V42.1107H85.7143Z" fill="#7F7C76"/>
<path d="M91.9171 42.1107V38.2513H90.2504L89.1983 40.567L88.1954 38.2513H86.4746V42.1107H87.7283V40.0262L88.6329 42.1107H89.7539L90.6683 40.0262V42.1107H91.9171Z" fill="#7F7C76"/>
<path d="M94.0053 41.3978H96.0899L96.4292 42.1107H97.85L95.9031 38.2513H94.3151L92.2551 42.1107H93.6464L94.0053 41.3978ZM95.672 40.5325H94.438L94.9247 39.6033L95.0722 39.2494L95.2099 39.5984L95.672 40.5325Z" fill="#7F7C76"/>
<path d="M102.029 39.2199V38.2513H97.4226V39.2199H99.0499V42.1107H100.397V39.2199H102.029Z" fill="#7F7C76"/>
<path d="M106.509 42.1107V41.152H103.742V40.6505H106.396V39.7115H103.742V39.2149H106.475V38.2513H102.444V42.1107H106.509Z" fill="#7F7C76"/>
<path d="M80.9233 44.1624H79.6499C79.6499 44.1624 78.819 46.5911 78.819 46.6501C78.819 46.5911 78.0422 44.1624 78.0422 44.1624H76.6607C76.6607 44.1624 75.8888 46.5911 75.8888 46.6501C75.8888 46.5911 75.053 44.1624 75.053 44.1624H73.6223L75.0678 48.0218H76.5083C76.5083 48.0218 77.2851 45.716 77.29 45.6521C77.2949 45.716 78.0668 48.0218 78.0668 48.0218H79.5122L80.9233 44.1624Z" fill="#7F7C76"/>
<path d="M82.6655 48.0218V44.1624H81.3135V48.0218H82.6655Z" fill="#7F7C76"/>
<path d="M87.9244 48.0218V44.1624H86.6658V46.2617L84.8123 44.1624H83.4258V48.0218H84.6943V45.8733L86.6068 48.0218H87.9244Z" fill="#7F7C76"/>
<path d="M93.1914 48.0218V44.1624H91.9328V46.2617L90.0793 44.1624H88.6929V48.0218H89.9613V45.8733L91.8738 48.0218H93.1914Z" fill="#7F7C76"/>
<path d="M98.0256 48.0218V47.0631H95.2577V46.5616H97.9125V45.6226H95.2577V45.126H97.9912V44.1624H93.9597V48.0218H98.0256Z" fill="#7F7C76"/>
<path d="M103.223 45.3374C103.223 44.9884 103.139 44.7376 102.962 44.5557C102.731 44.3099 102.333 44.1624 101.723 44.1624H98.6506V48.0218H99.9633V46.66H101.158L102.117 48.0218H103.582L102.417 46.4485C102.677 46.4092 102.889 46.2519 103.026 46.0651C103.149 45.893 103.223 45.6373 103.223 45.3374ZM101.945 45.4603C101.945 45.5243 101.935 45.6029 101.9 45.6619C101.851 45.7602 101.723 45.7996 101.512 45.7996H99.9682V45.0965H101.487C101.694 45.0965 101.832 45.1309 101.9 45.2588C101.935 45.3079 101.945 45.3866 101.945 45.4603Z" fill="#7F7C76"/>
<path d="M76.1001 51.8188C76.1001 51.7557 76.1001 49.9329 76.1001 49.9329H75.6398C75.6398 49.9329 75.6398 51.7482 75.6398 51.7891C75.6398 52.2271 75.2277 52.4759 74.6337 52.4759C73.9321 52.4759 73.5868 52.2086 73.5868 51.7854C73.5868 51.7445 73.5868 49.9329 73.5868 49.9329H73.1228C73.1228 49.9329 73.1228 51.7 73.1228 51.7705C73.1228 52.5427 73.7242 52.8842 74.6152 52.8842C75.5358 52.8842 76.1001 52.5204 76.1001 51.8188Z" fill="#7F7C76"/>
<path d="M79.4031 52.8471V52.4202H77.3947V49.9329H76.9307V52.8471H79.4031Z" fill="#7F7C76"/>
<path d="M82.0398 50.3561V49.9329H78.9436V50.3561H80.2578V52.8471H80.7256V50.3561H82.0398Z" fill="#7F7C76"/>
<path d="M85.3396 50.757C85.3396 50.5491 85.295 50.3969 85.2171 50.2744C85.0797 50.0702 84.8161 49.9329 84.3781 49.9329H82.4922V52.8471H82.9488V51.6183H84.2778L85.0908 52.8471H85.6254L84.7456 51.5403C84.9683 51.5144 85.1428 51.3881 85.2356 51.2248C85.3025 51.1134 85.3396 50.9501 85.3396 50.757ZM84.8792 50.7941C84.8792 50.8758 84.8607 50.9761 84.8273 51.0429C84.7679 51.1505 84.6305 51.2062 84.4078 51.2099H82.9525C82.9525 51.2025 82.9525 50.3487 82.9525 50.3487H84.3224C84.6008 50.3487 84.7493 50.4155 84.8273 50.5417C84.8607 50.6011 84.8792 50.7013 84.8792 50.7941Z" fill="#7F7C76"/>
<path d="M86.6607 52.1269H88.4761L88.8473 52.8471H89.3448L87.8672 49.9329H87.3215L85.7957 52.8471H86.282L86.6607 52.1269ZM88.283 51.7148H86.8612L87.4514 50.5974L87.5814 50.3264L87.7113 50.5974L88.283 51.7148Z" fill="#7F7C76"/>
<path d="M94.053 52.5687C94.1681 52.435 94.2201 52.2457 94.2201 52.0415C94.2201 51.8485 94.1644 51.6554 94.0493 51.5366C93.9342 51.4253 93.7486 51.3325 93.5444 51.3139C93.6632 51.2953 93.756 51.2211 93.8191 51.1431C93.9194 51.028 93.9787 50.8424 93.9787 50.6568C93.9787 50.46 93.9194 50.2818 93.7931 50.1593C93.6558 50.022 93.4219 49.9329 93.0952 49.9329H91.135V52.8471H93.24C93.6335 52.8471 93.9082 52.7469 94.053 52.5687ZM93.4998 50.7496C93.4998 50.8795 93.459 50.9946 93.3885 51.0614C93.3179 51.1394 93.1991 51.1728 93.0729 51.1728H91.5879V50.3338H92.9875C93.1583 50.3338 93.2882 50.3672 93.3773 50.4489C93.4553 50.5231 93.4998 50.6308 93.4998 50.7496ZM93.6483 52.2865C93.5555 52.3905 93.3959 52.4425 93.162 52.4425H91.5879V51.5775H93.1732C93.3885 51.5775 93.537 51.622 93.6261 51.7074C93.7077 51.7854 93.7412 51.8856 93.7412 52.0007C93.7412 52.1195 93.7152 52.2197 93.6483 52.2865Z" fill="#7F7C76"/>
<path d="M97.5903 52.8471V52.4202H95.3258V51.5886H97.5012V51.1654H95.3258V50.3561H97.5643V49.9329H94.8728V52.8471H97.5903Z" fill="#7F7C76"/>
<path d="M101.217 51.9857C101.217 51.5105 100.902 51.2655 100.126 51.1764C99.9958 51.1579 99.7136 51.1282 99.5614 51.1096C98.8412 51.0242 98.6222 50.9277 98.6222 50.679C98.6222 50.4377 98.8635 50.3003 99.5911 50.3003C100.155 50.3003 100.445 50.4117 100.59 50.6121C100.631 50.6678 100.653 50.7347 100.664 50.7866H101.161C101.147 50.7012 101.113 50.5824 101.061 50.4859C100.861 50.1407 100.449 49.8919 99.5911 49.8919C98.5665 49.8882 98.1433 50.2595 98.1433 50.7198C98.1433 51.1801 98.4737 51.414 99.3313 51.5143C99.4798 51.5328 99.7433 51.5625 99.8733 51.5774C100.538 51.659 100.746 51.7593 100.746 52.0377C100.746 52.2939 100.508 52.4795 99.747 52.4795C99.1234 52.4795 98.7892 52.3681 98.6556 52.1528C98.6148 52.0934 98.5888 52.0006 98.5851 51.9375H98.095C98.1062 52.0711 98.1433 52.2159 98.2101 52.331C98.4032 52.6837 98.8561 52.8879 99.7322 52.8879C100.779 52.8879 101.217 52.55 101.217 51.9857Z" fill="#7F7C76"/>
<path d="M104.546 50.3561V49.9329H101.45V50.3561H102.764V52.8471H103.232V50.3561H104.546Z" fill="#7F7C76"/>
<path d="M71.8088 55.38C71.8088 55.083 71.7494 54.8825 71.6491 54.7303C71.5081 54.5112 71.2333 54.3962 70.7544 54.3962H68.9131V57.3104H69.3734V56.36C69.3734 56.36 70.6728 56.36 70.7359 56.36C71.1851 56.3563 71.4932 56.2524 71.6566 56.0148C71.7605 55.87 71.8088 55.6621 71.8088 55.38ZM71.341 55.38C71.341 55.5284 71.3261 55.6398 71.2779 55.7141C71.1925 55.8514 71.018 55.9368 70.6579 55.9368C70.6245 55.9368 69.3734 55.9368 69.3734 55.9368V54.812H70.6728C71.0106 54.812 71.1851 54.8899 71.2779 55.0421C71.3224 55.1089 71.341 55.2315 71.341 55.38Z" fill="#7F7C76"/>
<path d="M75.1689 57.3104V56.8835H72.9043V56.0519H75.0798V55.6287H72.9043V54.8194H75.1429V54.3962H72.4514V57.3104H75.1689Z" fill="#7F7C76"/>
<path d="M78.7104 55.2203C78.7104 55.0124 78.6659 54.8602 78.5879 54.7377C78.4505 54.5335 78.187 54.3962 77.7489 54.3962H75.863V57.3104H76.3196V56.0816H77.6487L78.4617 57.3104H78.9963L78.1164 56.0036C78.3392 55.9777 78.5137 55.8514 78.6065 55.6881C78.6733 55.5767 78.7104 55.4134 78.7104 55.2203ZM78.2501 55.2574C78.2501 55.3391 78.2315 55.4394 78.1981 55.5062C78.1387 55.6138 78.0013 55.6695 77.7786 55.6732H76.3233C76.3233 55.6658 76.3233 54.812 76.3233 54.812H77.6932C77.9716 54.812 78.1201 54.8788 78.1981 55.005C78.2315 55.0644 78.2501 55.1646 78.2501 55.2574Z" fill="#7F7C76"/>
<path d="M82.1521 54.8194V54.3962H79.5608V57.3104H80.0211V56.0705H82.0556V55.6361H80.0211V54.8194H82.1521Z" fill="#7F7C76"/>
<path d="M84.265 54.3442C83.645 54.3442 83.2181 54.4964 82.9136 54.8157C82.6575 55.0644 82.5461 55.4097 82.5461 55.844C82.5461 56.3192 82.6909 56.6756 82.9582 56.9169C83.2441 57.2028 83.6821 57.3512 84.265 57.3512C84.8664 57.3512 85.3341 57.2028 85.6126 56.902C85.8539 56.657 85.9801 56.3081 85.9801 55.8403C85.9801 55.3874 85.8724 55.0421 85.6163 54.7971C85.323 54.4927 84.8849 54.3442 84.265 54.3442ZM84.265 56.9355C83.8566 56.9355 83.567 56.8464 83.348 56.6682C83.1253 56.4863 83.0176 56.2078 83.0176 55.8514C83.0176 55.5173 83.1104 55.2389 83.2886 55.0718C83.4928 54.8788 83.8046 54.7637 84.2613 54.7637C84.7327 54.7637 85.026 54.8751 85.245 55.0681C85.4307 55.2315 85.5123 55.521 85.5123 55.8477C85.5123 56.1781 85.427 56.4603 85.2376 56.631C85.0186 56.8352 84.7105 56.9355 84.265 56.9355Z" fill="#7F7C76"/>
<path d="M89.4634 55.2203C89.4634 55.0124 89.4188 54.8602 89.3409 54.7377C89.2035 54.5335 88.9399 54.3962 88.5019 54.3962H86.616V57.3104H87.0726V56.0816H88.4016L89.2147 57.3104H89.7492L88.8694 56.0036C89.0921 55.9777 89.2666 55.8514 89.3594 55.6881C89.4263 55.5767 89.4634 55.4134 89.4634 55.2203ZM89.003 55.2574C89.003 55.3391 88.9845 55.4394 88.9511 55.5062C88.8917 55.6138 88.7543 55.6695 88.5316 55.6732H87.0763C87.0763 55.6658 87.0763 54.812 87.0763 54.812H88.4462C88.7246 54.812 88.8731 54.8788 88.9511 55.005C88.9845 55.0644 89.003 55.1646 89.003 55.2574Z" fill="#7F7C76"/>
<path d="M93.9039 57.3104V54.3962H93.3025L92.1034 56.7944L90.9265 54.3962H90.314V57.3104H90.7558V55.0681L91.8546 57.3104H92.3372L93.4621 55.0681V57.3104H93.9039Z" fill="#7F7C76"/>
<path d="M95.2075 56.5902H97.0229L97.3941 57.3104H97.8916L96.414 54.3962H95.8683L94.3425 57.3104H94.8288L95.2075 56.5902ZM96.8298 56.1781H95.408L95.9982 55.0607L96.1282 54.7897L96.2581 55.0607L96.8298 56.1781Z" fill="#7F7C76"/>
<path d="M101.236 57.3104V54.3962H100.794V56.6607L98.8641 54.3962H98.3406V57.3104H98.7898V55.031L100.735 57.3104H101.236Z" fill="#7F7C76"/>
<path d="M105.241 56.2227H104.758C104.743 56.3563 104.691 56.49 104.598 56.5902C104.398 56.8241 104.079 56.9243 103.589 56.9243C103.177 56.9243 102.735 56.8092 102.523 56.5085C102.412 56.3675 102.341 56.1596 102.341 55.8477C102.341 55.5693 102.39 55.3614 102.497 55.2203C102.675 54.9345 103.05 54.786 103.578 54.786C104.09 54.786 104.413 54.927 104.584 55.1238C104.68 55.2277 104.736 55.3503 104.754 55.495H105.237C105.222 55.3317 105.17 55.1386 105.059 54.9753C104.821 54.6226 104.383 54.3442 103.581 54.3442C102.817 54.3442 102.36 54.5892 102.107 54.9567C101.944 55.1683 101.862 55.4653 101.862 55.844C101.862 56.2672 101.963 56.5791 102.137 56.7981C102.39 57.1434 102.876 57.3512 103.611 57.3512C104.365 57.3512 104.814 57.1248 105.037 56.7647C105.163 56.5902 105.226 56.3823 105.241 56.2227Z" fill="#7F7C76"/>
<path d="M108.563 57.3104V56.8835H106.298V56.0519H108.474V55.6287H106.298V54.8194H108.537V54.3962H105.845V57.3104H108.563Z" fill="#7F7C76"/>
<path d="M74.6119 60.2054L75.1671 61.9142H76.9638L75.5103 62.9703L76.0655 64.679L74.6119 63.623L73.1583 64.679L73.7136 62.9703L72.26 61.9142H74.0567L74.6119 60.2054Z" fill="#7F7C76"/>
<path d="M81.0215 60.2054L81.588 61.9141H83.4214L81.9382 62.9702L82.5047 64.679L81.0215 63.6229L79.5383 64.679L80.1048 62.9702L78.6216 61.9141H80.455L81.0215 60.2054Z" fill="#7F7C76"/>
<path d="M87.3804 60.2054L87.947 61.9141H89.7803L88.2971 62.9702L88.8637 64.679L87.3804 63.6229L85.8972 64.679L86.4637 62.9702L84.9805 61.9141H86.8139L87.3804 60.2054Z" fill="#7F7C76"/>
<path d="M93.7395 60.2054L94.306 61.9141H96.1394L94.6562 62.9702L95.2227 64.679L93.7395 63.6229L92.2563 64.679L92.8228 62.9702L91.3396 61.9141H93.173L93.7395 60.2054Z" fill="#7F7C76"/>
<path d="M100.149 60.2054L100.704 61.9141H102.501L101.047 62.9702L101.602 64.679L100.149 63.6229L98.6952 64.679L99.2505 62.9702L97.7969 61.9141H99.5936L100.149 60.2054Z" fill="#7F7C76"/>
<path d="M77.726 31.3762L78.1458 32.6682H79.5043L78.4053 33.4667L78.8251 34.7586L77.726 33.9602L76.627 34.7586L77.0468 33.4667L75.9478 32.6682H77.3063L77.726 31.3762Z" fill="#7F7C76"/>
<path d="M82.5724 31.3744L83.0008 32.6664H84.3869L83.2655 33.4649L83.6938 34.7568L82.5724 33.9583L81.4509 34.7568L81.8793 33.4649L80.7578 32.6664H82.144L82.5724 31.3744Z" fill="#7F7C76"/>
<path d="M87.38 31.3744L87.8083 32.6664H89.1945L88.0731 33.4649L88.5014 34.7568L87.38 33.9583L86.2585 34.7568L86.6869 33.4649L85.5654 32.6664H86.9516L87.38 31.3744Z" fill="#7F7C76"/>
<path d="M92.1886 31.3744L92.6169 32.6664H94.0031L92.8817 33.4649L93.31 34.7568L92.1886 33.9583L91.0671 34.7568L91.4955 33.4649L90.374 32.6664H91.7602L92.1886 31.3744Z" fill="#7F7C76"/>
<path d="M97.0341 31.3744L97.4539 32.6664H98.8124L97.7134 33.4649L98.1332 34.7568L97.0341 33.9583L95.9351 34.7568L96.3549 33.4649L95.2559 32.6664H96.6143L97.0341 31.3744Z" fill="#7F7C76"/>
<path fill-rule="evenodd" clip-rule="evenodd" d="M58.3763 54.6304C56.5237 43.0395 61.9305 31.5717 72.7546 26.6471L72.8545 26.8667C62.1393 31.7417 56.7772 43.0973 58.6145 54.5923C60.6472 67.3096 70.9066 74.9366 83.4701 75.3043L83.463 75.5455C70.8016 75.1749 60.4299 67.4789 58.3763 54.6304Z" fill="#7F7C76"/>
<path d="M70.4079 29.6052C68.4076 29.6508 66.0665 30.7788 64.6851 32.4172C65.7929 33.4459 67.5753 33.0656 68.858 32.8552C70.6887 32.555 72.6355 31.9734 74.363 31.1501C73.6527 29.6381 71.7393 29.5749 70.4079 29.6052Z" fill="#7F7C76"/>
<path d="M68.8346 27.1377C67.6498 28.9833 66.2378 30.8176 64.7012 32.4329C63.4156 31.2261 64.1916 29.2178 64.7163 27.9689C65.6668 25.7059 67.9457 23.7544 70.3282 22.7559C70.9821 24.2436 69.5618 26.0049 68.8346 27.1377Z" fill="#7F7C76"/>
<path d="M64.6195 34.7807C62.7465 35.4465 61.137 37.3207 60.3289 39.2023C61.6757 39.8285 63.2068 38.9242 64.3269 38.3221C65.8649 37.4953 67.434 36.3545 68.6686 35.0343C67.5531 33.8573 65.8593 34.3401 64.6195 34.7807Z" fill="#7F7C76"/>
<path d="M62.3491 32.9365C61.9391 35.0415 61.2517 37.2233 60.3489 39.2119C58.7731 38.4687 58.8331 36.3401 58.9006 34.9855C59.0158 32.6734 60.3093 30.0368 62.1102 28.3612C63.2127 29.5432 62.6103 31.5956 62.3491 32.9365Z" fill="#7F7C76"/>
<path d="M61.0156 41.4625C59.4549 42.6937 58.5089 44.9754 58.2898 47.0129C59.7662 47.1824 60.9463 45.8388 61.8244 44.917C63.0199 43.6619 64.1516 42.0877 64.8703 40.4408C63.4629 39.673 62.0322 40.6605 61.0156 41.4625Z" fill="#7F7C76"/>
<path d="M58.3115 40.4231C58.5898 42.5488 58.5904 44.8485 58.312 47.0157C56.595 46.8048 56.0255 44.7432 55.6891 43.4499C55.1083 41.2175 55.4977 38.3339 56.6291 36.1637C58.043 36.9464 58.1337 39.0644 58.3115 40.4231Z" fill="#7F7C76"/>
<path d="M59.7907 48.756C58.5557 50.5651 58.1214 53.4002 58.6768 55.679C60.3088 55.2926 61.1178 53.4449 61.7674 52.14C62.6307 50.4057 63.3604 48.3824 63.6216 46.3973C61.8515 46.0289 60.6042 47.5642 59.7907 48.756Z" fill="#7F7C76"/>
<path d="M56.5486 48.5731C57.5108 50.8008 58.2617 53.2527 58.7011 55.6735C56.8294 56.0756 55.4823 54.1102 54.6997 52.807C53.3064 50.4872 52.9005 47.2713 53.4109 44.4961C55.124 44.8396 55.9623 47.2161 56.5486 48.5731Z" fill="#7F7C76"/>
<path d="M60.6547 56.6272C59.9916 58.8218 60.4525 61.8053 61.7951 63.8685C63.2705 62.9079 63.4747 60.7937 63.6838 59.2778C63.9595 57.2774 64.0893 55.0614 63.7468 52.9871C61.8597 53.228 61.0976 55.1611 60.6547 56.6272Z" fill="#7F7C76"/>
<path d="M57.3752 57.5666C59.0308 59.4663 60.558 61.6323 61.8175 63.8542C60.1093 64.9206 58.1048 63.4637 56.8891 62.4327C54.7324 60.6038 53.332 57.4953 53 54.5647C54.7948 54.3235 56.3765 56.4205 57.3752 57.5666Z" fill="#7F7C76"/>
<path d="M64.1341 64.0967C64.2764 66.6512 65.9395 69.3317 68.1539 70.8574C69.2233 69.3933 68.553 67.15 68.1882 65.5841C67.6971 63.4758 67.0174 61.2804 66.0073 59.3324C64.2459 60.2632 64.0404 62.4144 64.1341 64.0967Z" fill="#7F7C76"/>
<path d="M61.1558 66.2545C63.5549 67.5876 65.9471 69.1607 68.1713 70.8346C66.8393 72.5886 64.1769 71.8892 62.5265 71.3254C59.6181 70.3319 57.0252 67.7129 55.6709 64.8032C57.388 63.9187 59.7386 65.467 61.1558 66.2545Z" fill="#7F7C76"/>
<path d="M70.9668 70.3374C72.4067 72.9652 75.688 74.6795 78.778 75.0922C79.1106 73.1818 77.0435 71.2903 75.9171 70.0529C74.3134 68.2912 72.6423 66.463 70.7687 64.9398C69.365 66.5696 70.1071 68.7685 70.9668 70.3374Z" fill="#7F7C76"/>
<path d="M68.9106 73.6678C72.1837 74.0081 75.5123 74.498 78.7835 75.0629C78.4712 77.4733 74.6461 77.8623 72.9096 78.0046C69.3491 78.2964 65.3883 76.8652 62.6304 74.4558C64.0002 72.844 67.1671 73.4866 68.9106 73.6678Z" fill="#7F7C76"/>
<path d="M75.215 24.624C73.0175 25.2509 70.4453 26.4402 69.1746 28.6356C71.4811 28.3842 73.748 27.5635 75.9649 26.9382C78.4481 26.2377 81.0628 25.7138 83.467 24.7469C80.834 23.6935 77.7302 23.9064 75.215 24.624Z" fill="#7F7C76"/>
<path fill-rule="evenodd" clip-rule="evenodd" d="M117.728 54.5923C119.565 43.0973 114.203 31.7419 103.488 26.8667L103.588 26.6471C114.412 31.5718 119.819 43.0395 117.966 54.6304C115.913 67.4789 105.541 75.1749 92.8796 75.5455L92.8726 75.3043C105.436 74.9366 115.695 67.3096 117.728 54.5923Z" fill="#7F7C76"/>
<path d="M105.935 29.6052C107.935 29.6508 110.276 30.7788 111.658 32.4172C110.55 33.4459 108.767 33.0656 107.485 32.8552C105.654 32.555 103.707 31.9734 101.98 31.1501C102.69 29.6381 104.603 29.5749 105.935 29.6052Z" fill="#7F7C76"/>
<path d="M107.508 27.1377C108.693 28.9833 110.105 30.8176 111.641 32.4329C112.927 31.2261 112.151 29.2178 111.626 27.9689C110.676 25.7059 108.397 23.7544 106.014 22.7559C105.36 24.2436 106.781 26.0049 107.508 27.1377Z" fill="#7F7C76"/>
<path d="M111.724 34.7807C113.597 35.4465 115.206 37.3207 116.014 39.2023C114.667 39.8285 113.136 38.9242 112.016 38.3221C110.478 37.4953 108.909 36.3545 107.675 35.0343C108.79 33.8573 110.484 34.3401 111.724 34.7807Z" fill="#7F7C76"/>
<path d="M113.994 32.9365C114.404 35.0415 115.091 37.2233 115.994 39.2119C117.57 38.4687 117.51 36.3401 117.442 34.9855C117.327 32.6734 116.034 30.0368 114.233 28.3612C113.13 29.5432 113.733 31.5956 113.994 32.9365Z" fill="#7F7C76"/>
<path d="M115.327 41.4625C116.888 42.6937 117.834 44.9754 118.053 47.0129C116.577 47.1824 115.397 45.8388 114.519 44.917C113.323 43.6619 112.191 42.0877 111.473 40.4408C112.88 39.673 114.311 40.6605 115.327 41.4625Z" fill="#7F7C76"/>
<path d="M118.032 40.4231C117.753 42.5486 117.753 44.8485 118.031 47.0157C119.748 46.8048 120.318 44.7432 120.654 43.4499C121.235 41.2175 120.845 38.3339 119.714 36.1637C118.3 36.9464 118.209 39.0644 118.032 40.4231Z" fill="#7F7C76"/>
<path d="M116.552 48.756C117.787 50.5651 118.221 53.4002 117.666 55.679C116.034 55.2926 115.225 53.445 114.575 52.14C113.712 50.4057 112.982 48.3824 112.721 46.3973C114.491 46.0289 115.739 47.5642 116.552 48.756Z" fill="#7F7C76"/>
<path d="M119.794 48.5731C118.832 50.8008 118.081 53.2527 117.642 55.6735C119.513 56.0756 120.86 54.1102 121.643 52.807C123.036 50.4872 123.442 47.2713 122.932 44.4961C121.219 44.8396 120.38 47.2161 119.794 48.5731Z" fill="#7F7C76"/>
<path d="M115.688 56.6272C116.351 58.8218 115.891 61.8053 114.548 63.8685C113.073 62.9079 112.868 60.7937 112.659 59.2778C112.384 57.2774 112.254 55.0614 112.596 52.9871C114.483 53.228 115.245 55.1611 115.688 56.6272Z" fill="#7F7C76"/>
<path d="M118.967 57.5666C117.312 59.4664 115.785 61.6323 114.525 63.8542C116.233 64.9206 118.238 63.4637 119.454 62.4327C121.61 60.6038 123.011 57.4953 123.343 54.5647C121.548 54.3235 119.966 56.4205 118.967 57.5666Z" fill="#7F7C76"/>
<path d="M112.208 64.0967C112.066 66.6512 110.403 69.3317 108.189 70.8574C107.119 69.3933 107.79 67.1501 108.154 65.5841C108.645 63.4758 109.325 61.2804 110.335 59.3324C112.097 60.2632 112.302 62.4144 112.208 64.0967Z" fill="#7F7C76"/>
<path d="M115.187 66.2545C112.788 67.5876 110.396 69.1607 108.172 70.8346C109.504 72.5886 112.166 71.8892 113.816 71.3254C116.725 70.3319 119.318 67.7129 120.672 64.8032C118.955 63.9187 116.604 65.467 115.187 66.2545Z" fill="#7F7C76"/>
<path d="M105.376 70.3374C103.936 72.9652 100.655 74.6795 97.5646 75.0922C97.232 73.1818 99.299 71.2903 100.426 70.0529C102.029 68.2912 103.7 66.463 105.574 64.9398C106.978 66.5696 106.235 68.7685 105.376 70.3374Z" fill="#7F7C76"/>
<path d="M107.432 73.6678C104.159 74.0081 100.831 74.498 97.5591 75.0629C97.8715 77.4733 101.697 77.8623 103.433 78.0046C106.994 78.2964 110.955 76.8652 113.712 74.4558C112.343 72.844 109.176 73.4866 107.432 73.6678Z" fill="#7F7C76"/>
<path d="M101.128 24.624C103.325 25.2509 105.898 26.4402 107.168 28.6356C104.862 28.3842 102.595 27.5635 100.378 26.9382C97.8949 26.2377 95.2802 25.7138 92.876 24.7469C95.5091 23.6935 98.6128 23.9064 101.128 24.624Z" fill="#7F7C76"/>
<path d="M89.6004 23.4879L88.4729 21L87.3666 23.4416L84.7937 21.8464L86.447 25.3207H90.5586L92.1522 21.8464L89.6004 23.4879Z" fill="#7F7C76"/>
<path d="M90.5322 25.8606H86.4141V26.4683H90.5322V25.8606Z" fill="#7F7C76"/>
<path d="M88.7673 72.8718L89.4309 74.914H91.5782L89.841 76.1761L90.5045 78.2183L88.7673 76.9562L87.0301 78.2183L87.6937 76.1761L85.9565 74.914H88.1038L88.7673 72.8718Z" fill="#7F7C76"/>
</svg>
