<svg width="144" height="120" viewBox="0 0 144 120" fill="none" xmlns="http://www.w3.org/2000/svg">
<path d="M92.1212 112.593C100.202 106.337 107.152 97.1193 112.97 84.9383C118.465 73.0864 121.212 61.5638 121.212 50.3704C117.98 52.3457 114.263 53.3333 110.061 53.3333C102.626 53.3333 96.4849 50.8642 91.6364 45.9259C86.7879 40.9877 84.3637 34.7325 84.3637 27.1605C84.3637 18.93 86.9495 12.3457 92.1212 7.4074C97.2929 2.46914 104.081 -3.48985e-06 112.485 -2.75514e-06C122.182 -1.90741e-06 129.939 3.45679 135.758 10.3704C141.253 17.284 144 26.8313 144 39.0124C144 54.4856 139.96 69.9589 131.879 85.4321C123.475 100.905 113.293 112.428 101.333 120L92.1212 112.593ZM7.75758 112.593C15.5152 106.337 22.303 97.1193 28.1212 84.9383C33.6162 73.0864 36.5253 61.5638 36.8485 50.3704C32.9697 52.3457 29.0909 53.3333 25.2121 53.3333C17.7778 53.3333 11.798 50.8642 7.27274 45.9259C2.42425 40.9876 7.45432e-06 34.7325 8.11629e-06 27.1605C8.83582e-06 18.93 2.58587 12.3457 7.75759 7.40739C12.9293 2.46913 19.7172 -1.08652e-05 28.1212 -1.01304e-05C37.495 -9.31097e-06 45.0909 3.45679 50.9091 10.3704C56.7273 17.6132 59.6364 27.1605 59.6364 39.0124C59.6364 54.4856 55.596 69.9588 47.5152 85.4321C39.1111 100.905 28.7677 112.428 16.4849 120L7.75758 112.593Z" fill="white"/>
</svg>
