<svg width="161" height="24" viewBox="0 0 161 24" fill="none" xmlns="http://www.w3.org/2000/svg">
<path d="M8.316 5.064L7.632 5.208C7.448 5.256 7.308 5.324 7.212 5.412C7.116 5.5 7.068 5.62 7.068 5.772V19.38C7.068 19.644 7.136 19.828 7.272 19.932C7.416 20.036 7.62 20.088 7.884 20.088H9.348C9.764 20.088 10.148 20.02 10.5 19.884C10.852 19.74 11.192 19.48 11.52 19.104C11.856 18.728 12.2 18.188 12.552 17.484L13.596 15.42C13.668 15.276 13.756 15.18 13.86 15.132C13.964 15.076 14.08 15.068 14.208 15.108C14.352 15.148 14.452 15.22 14.508 15.324C14.564 15.42 14.568 15.552 14.52 15.72L13.38 20.664C13.308 20.92 13.224 21.1 13.128 21.204C13.032 21.316 12.896 21.372 12.72 21.372C12.6 21.372 12.464 21.34 12.312 21.276C12.16 21.22 11.984 21.16 11.784 21.096C11.584 21.032 11.344 21 11.064 21H1.512C1.336 21 1.204 20.964 1.116 20.892C1.028 20.812 0.984 20.712 0.984 20.592C0.984 20.368 1.112 20.216 1.368 20.136L2.052 19.992C2.236 19.944 2.376 19.876 2.472 19.788C2.568 19.7 2.616 19.58 2.616 19.428V5.772C2.616 5.62 2.568 5.5 2.472 5.412C2.376 5.324 2.236 5.256 2.052 5.208L1.368 5.064C1.112 4.984 0.984 4.832 0.984 4.608C0.984 4.48 1.028 4.38 1.116 4.308C1.204 4.236 1.336 4.2 1.512 4.2H8.172C8.356 4.2 8.488 4.236 8.568 4.308C8.656 4.38 8.7 4.48 8.7 4.608C8.7 4.832 8.572 4.984 8.316 5.064ZM20.4651 10.212V19.476C20.4651 19.684 20.4891 19.836 20.5371 19.932C20.5931 20.028 20.6811 20.096 20.8011 20.136L21.2451 20.256C21.3651 20.296 21.4491 20.348 21.4971 20.412C21.5451 20.468 21.5691 20.54 21.5691 20.628C21.5691 20.748 21.5291 20.84 21.4491 20.904C21.3771 20.968 21.2611 21 21.1011 21H15.8811C15.7211 21 15.6011 20.968 15.5211 20.904C15.4491 20.84 15.4131 20.748 15.4131 20.628C15.4131 20.548 15.4371 20.476 15.4851 20.412C15.5331 20.348 15.6131 20.296 15.7251 20.256L16.1811 20.136C16.3091 20.096 16.3971 20.028 16.4451 19.932C16.4931 19.836 16.5171 19.684 16.5171 19.476V12.108C16.5171 11.964 16.4931 11.86 16.4451 11.796C16.3971 11.724 16.3211 11.68 16.2171 11.664L15.6891 11.628C15.5851 11.604 15.5091 11.564 15.4611 11.508C15.4131 11.452 15.3891 11.38 15.3891 11.292C15.3891 11.188 15.4171 11.108 15.4731 11.052C15.5371 10.996 15.6451 10.94 15.7971 10.884L18.9531 9.876C19.1931 9.788 19.3771 9.728 19.5051 9.696C19.6411 9.656 19.7651 9.636 19.8771 9.636C20.0691 9.636 20.2131 9.692 20.3091 9.804C20.4131 9.908 20.4651 10.044 20.4651 10.212ZM18.3291 8.352C17.6251 8.352 17.0611 8.16 16.6371 7.776C16.2211 7.392 16.0131 6.896 16.0131 6.288C16.0131 5.688 16.2251 5.196 16.6491 4.812C17.0731 4.428 17.6331 4.236 18.3291 4.236C19.0331 4.236 19.5971 4.428 20.0211 4.812C20.4531 5.196 20.6691 5.688 20.6691 6.288C20.6691 6.896 20.4531 7.392 20.0211 7.776C19.5971 8.16 19.0331 8.352 18.3291 8.352ZM27.6249 10.212V19.476C27.6249 19.684 27.6489 19.836 27.6969 19.932C27.7529 20.028 27.8409 20.096 27.9609 20.136L28.4049 20.256C28.5809 20.336 28.6689 20.456 28.6689 20.616C28.6689 20.872 28.5089 21 28.1889 21H23.0409C22.8809 21 22.7609 20.968 22.6809 20.904C22.6089 20.84 22.5729 20.748 22.5729 20.628C22.5729 20.548 22.5969 20.476 22.6449 20.412C22.6929 20.348 22.7729 20.296 22.8849 20.256L23.3529 20.136C23.4729 20.096 23.5569 20.028 23.6049 19.932C23.6529 19.836 23.6769 19.684 23.6769 19.476V12.108C23.6769 11.964 23.6529 11.86 23.6049 11.796C23.5569 11.724 23.4809 11.68 23.3769 11.664L22.8489 11.628C22.7449 11.604 22.6689 11.564 22.6209 11.508C22.5809 11.452 22.5609 11.38 22.5609 11.292C22.5609 11.188 22.5889 11.108 22.6449 11.052C22.7009 10.996 22.8049 10.94 22.9569 10.884L26.1129 9.876C26.3449 9.788 26.5249 9.728 26.6529 9.696C26.7889 9.656 26.9209 9.636 27.0489 9.636C27.2409 9.636 27.3849 9.692 27.4809 9.804C27.5769 9.908 27.6249 10.044 27.6249 10.212ZM27.2649 12.888L26.8569 12.468L27.2889 12.072C28.2649 11.176 29.1289 10.544 29.8809 10.176C30.6409 9.808 31.3369 9.624 31.9689 9.624C32.8889 9.624 33.6329 9.916 34.2009 10.5C34.7769 11.084 35.0649 11.916 35.0649 12.996V19.452C35.0649 19.668 35.0929 19.828 35.1489 19.932C35.2049 20.036 35.2969 20.108 35.4249 20.148L35.8449 20.256C35.9569 20.296 36.0369 20.348 36.0849 20.412C36.1409 20.476 36.1689 20.548 36.1689 20.628C36.1689 20.748 36.1289 20.84 36.0489 20.904C35.9769 20.968 35.8569 21 35.6889 21H30.5289C30.2089 21 30.0489 20.872 30.0489 20.616C30.0489 20.456 30.1409 20.336 30.3249 20.256L30.7689 20.136C30.8969 20.096 30.9849 20.024 31.0329 19.92C31.0889 19.816 31.1169 19.66 31.1169 19.452V13.5C31.1169 12.892 30.9809 12.444 30.7089 12.156C30.4369 11.86 30.0609 11.712 29.5809 11.712C29.2849 11.712 28.9729 11.78 28.6449 11.916C28.3249 12.044 28.0129 12.24 27.7089 12.504L27.2649 12.888ZM45.3345 19.296L45.2505 19.248V5.496C45.2505 5.344 45.2265 5.236 45.1785 5.172C45.1305 5.108 45.0545 5.068 44.9505 5.052L44.4225 5.016C44.3185 4.992 44.2425 4.952 44.1945 4.896C44.1545 4.84 44.1345 4.768 44.1345 4.68C44.1345 4.576 44.1625 4.496 44.2185 4.44C44.2745 4.384 44.3785 4.328 44.5305 4.272L47.6865 3.264C47.9185 3.176 48.0985 3.116 48.2265 3.084C48.3625 3.044 48.4945 3.024 48.6225 3.024C48.8145 3.024 48.9585 3.08 49.0545 3.192C49.1505 3.296 49.1985 3.432 49.1985 3.6V19.476C49.1985 19.684 49.2225 19.836 49.2705 19.932C49.3265 20.028 49.4145 20.096 49.5345 20.136L49.9785 20.256C50.0985 20.296 50.1825 20.348 50.2305 20.412C50.2785 20.468 50.3025 20.54 50.3025 20.628C50.3025 20.748 50.2625 20.84 50.1825 20.904C50.1105 20.968 49.9945 21 49.8345 21H46.4145C46.1105 21 45.8545 20.9 45.6465 20.7C45.4385 20.5 45.3345 20.244 45.3345 19.932V19.296ZM37.1745 15.804C37.1745 14.548 37.4185 13.46 37.9065 12.54C38.3945 11.612 39.0585 10.896 39.8985 10.392C40.7385 9.88 41.6825 9.624 42.7305 9.624C43.6025 9.624 44.3385 9.804 44.9385 10.164C45.5465 10.516 46.0545 11.036 46.4625 11.724L45.7545 12.216C45.4745 11.712 45.1545 11.34 44.7945 11.1C44.4345 10.852 44.0305 10.728 43.5825 10.728C43.1265 10.728 42.7185 10.88 42.3585 11.184C42.0065 11.488 41.7305 11.984 41.5305 12.672C41.3305 13.352 41.2305 14.268 41.2305 15.42C41.2305 16.452 41.3225 17.292 41.5065 17.94C41.6905 18.588 41.9465 19.064 42.2745 19.368C42.6105 19.664 42.9905 19.812 43.4145 19.812C43.8545 19.812 44.2745 19.676 44.6745 19.404C45.0745 19.124 45.4465 18.692 45.7905 18.108L46.2345 18.6C45.6425 19.464 44.9945 20.128 44.2905 20.592C43.5945 21.048 42.8025 21.276 41.9145 21.276C40.9945 21.276 40.1745 21.052 39.4545 20.604C38.7425 20.148 38.1825 19.512 37.7745 18.696C37.3745 17.872 37.1745 16.908 37.1745 15.804ZM58.1233 19.632V19.428L57.8713 19.488V11.664C57.8713 11.232 57.7673 10.896 57.5593 10.656C57.3513 10.408 57.0633 10.284 56.6953 10.284C56.3273 10.284 56.0393 10.376 55.8313 10.56C55.6313 10.736 55.5313 10.956 55.5313 11.22V12.372C55.5313 12.9 55.3473 13.328 54.9793 13.656C54.6113 13.976 54.1073 14.136 53.4673 14.136C52.9633 14.136 52.5713 14.012 52.2913 13.764C52.0113 13.516 51.8713 13.16 51.8713 12.696C51.8713 12.224 52.0753 11.752 52.4833 11.28C52.8913 10.808 53.4993 10.416 54.3073 10.104C55.1153 9.792 56.1153 9.636 57.3073 9.636C58.8193 9.636 59.9433 9.932 60.6793 10.524C61.4233 11.116 61.7953 11.936 61.7953 12.984V19.02C61.7953 19.228 61.8393 19.388 61.9273 19.5C62.0153 19.604 62.1353 19.656 62.2873 19.656C62.4313 19.656 62.5513 19.616 62.6473 19.536C62.7513 19.448 62.8273 19.332 62.8753 19.188C62.9073 19.14 62.9393 19.104 62.9713 19.08C63.0033 19.056 63.0433 19.044 63.0913 19.044C63.1633 19.044 63.2153 19.072 63.2473 19.128C63.2873 19.176 63.3073 19.244 63.3073 19.332C63.3073 19.572 63.2073 19.844 63.0073 20.148C62.8153 20.452 62.5153 20.716 62.1073 20.94C61.6993 21.164 61.1713 21.276 60.5233 21.276C59.7473 21.276 59.1513 21.124 58.7353 20.82C58.3273 20.508 58.1233 20.112 58.1233 19.632ZM51.3313 18.54C51.3313 17.556 51.7593 16.772 52.6153 16.188C53.4793 15.596 54.7673 15.3 56.4793 15.3C56.9433 15.3 57.3393 15.344 57.6673 15.432C57.9953 15.512 58.2793 15.62 58.5193 15.756L58.2913 16.284C58.0673 16.164 57.8433 16.076 57.6193 16.02C57.4033 15.964 57.1593 15.936 56.8873 15.936C56.3833 15.936 55.9873 16.108 55.6993 16.452C55.4193 16.788 55.2793 17.276 55.2793 17.916C55.2793 18.548 55.4113 19.024 55.6753 19.344C55.9473 19.656 56.2953 19.812 56.7193 19.812C57.0233 19.812 57.3153 19.736 57.5953 19.584C57.8753 19.432 58.1033 19.232 58.2793 18.984L58.4953 19.476C58.1193 20.052 57.5913 20.496 56.9113 20.808C56.2313 21.12 55.5033 21.276 54.7273 21.276C53.7193 21.276 52.8993 21.02 52.2673 20.508C51.6433 19.996 51.3313 19.34 51.3313 18.54ZM68.9293 20.592C68.9293 20.368 69.0533 20.216 69.3013 20.136L70.0213 19.98C70.2053 19.932 70.3413 19.864 70.4293 19.776C70.5173 19.688 70.5613 19.568 70.5613 19.416V5.784C70.5613 5.632 70.5173 5.512 70.4293 5.424C70.3413 5.336 70.2093 5.268 70.0333 5.22L69.2893 5.052C69.0493 4.98 68.9293 4.832 68.9293 4.608C68.9293 4.48 68.9733 4.38 69.0613 4.308C69.1493 4.236 69.2813 4.2 69.4573 4.2H76.0933C77.5573 4.2 78.8933 4.416 80.1013 4.848C81.3093 5.272 82.3493 5.884 83.2213 6.684C84.0933 7.484 84.7653 8.452 85.2373 9.588C85.7173 10.716 85.9573 11.984 85.9573 13.392C85.9573 14.92 85.5973 16.256 84.8773 17.4C84.1653 18.536 83.1533 19.42 81.8413 20.052C80.5373 20.684 78.9853 21 77.1853 21H69.4573C69.2813 21 69.1493 20.964 69.0613 20.892C68.9733 20.812 68.9293 20.712 68.9293 20.592ZM76.9093 20.1C77.7653 20.1 78.5253 19.86 79.1893 19.38C79.8533 18.9 80.3733 18.152 80.7493 17.136C81.1333 16.112 81.3253 14.788 81.3253 13.164C81.3253 11.868 81.1973 10.72 80.9413 9.72C80.6933 8.72 80.3253 7.88 79.8373 7.2C79.3573 6.512 78.7773 5.992 78.0973 5.64C77.4253 5.28 76.6653 5.1 75.8173 5.1H75.0253V19.236C75.0253 19.524 75.1053 19.74 75.2653 19.884C75.4253 20.028 75.6613 20.1 75.9733 20.1H76.9093ZM94.0764 19.632V19.428L93.8244 19.488V11.664C93.8244 11.232 93.7204 10.896 93.5124 10.656C93.3044 10.408 93.0164 10.284 92.6484 10.284C92.2804 10.284 91.9924 10.376 91.7844 10.56C91.5844 10.736 91.4844 10.956 91.4844 11.22V12.372C91.4844 12.9 91.3004 13.328 90.9324 13.656C90.5644 13.976 90.0604 14.136 89.4204 14.136C88.9164 14.136 88.5244 14.012 88.2444 13.764C87.9644 13.516 87.8244 13.16 87.8244 12.696C87.8244 12.224 88.0284 11.752 88.4364 11.28C88.8444 10.808 89.4524 10.416 90.2604 10.104C91.0684 9.792 92.0684 9.636 93.2604 9.636C94.7724 9.636 95.8964 9.932 96.6324 10.524C97.3764 11.116 97.7484 11.936 97.7484 12.984V19.02C97.7484 19.228 97.7924 19.388 97.8804 19.5C97.9684 19.604 98.0884 19.656 98.2404 19.656C98.3844 19.656 98.5044 19.616 98.6004 19.536C98.7044 19.448 98.7804 19.332 98.8284 19.188C98.8604 19.14 98.8924 19.104 98.9244 19.08C98.9564 19.056 98.9964 19.044 99.0444 19.044C99.1164 19.044 99.1684 19.072 99.2004 19.128C99.2404 19.176 99.2604 19.244 99.2604 19.332C99.2604 19.572 99.1604 19.844 98.9604 20.148C98.7684 20.452 98.4684 20.716 98.0604 20.94C97.6524 21.164 97.1244 21.276 96.4764 21.276C95.7004 21.276 95.1044 21.124 94.6884 20.82C94.2804 20.508 94.0764 20.112 94.0764 19.632ZM87.2844 18.54C87.2844 17.556 87.7124 16.772 88.5684 16.188C89.4324 15.596 90.7204 15.3 92.4324 15.3C92.8964 15.3 93.2924 15.344 93.6204 15.432C93.9484 15.512 94.2324 15.62 94.4724 15.756L94.2444 16.284C94.0204 16.164 93.7964 16.076 93.5724 16.02C93.3564 15.964 93.1124 15.936 92.8404 15.936C92.3364 15.936 91.9404 16.108 91.6524 16.452C91.3724 16.788 91.2324 17.276 91.2324 17.916C91.2324 18.548 91.3644 19.024 91.6284 19.344C91.9004 19.656 92.2484 19.812 92.6724 19.812C92.9764 19.812 93.2684 19.736 93.5484 19.584C93.8284 19.432 94.0564 19.232 94.2324 18.984L94.4484 19.476C94.0724 20.052 93.5444 20.496 92.8644 20.808C92.1844 21.12 91.4564 21.276 90.6804 21.276C89.6724 21.276 88.8524 21.02 88.2204 20.508C87.5964 19.996 87.2844 19.34 87.2844 18.54ZM105.109 10.212V19.476C105.109 19.684 105.133 19.836 105.181 19.932C105.237 20.028 105.325 20.096 105.445 20.136L105.889 20.256C106.065 20.336 106.153 20.456 106.153 20.616C106.153 20.872 105.993 21 105.673 21H100.525C100.365 21 100.245 20.968 100.165 20.904C100.093 20.84 100.057 20.748 100.057 20.628C100.057 20.548 100.081 20.476 100.129 20.412C100.177 20.348 100.257 20.296 100.369 20.256L100.837 20.136C100.957 20.096 101.041 20.028 101.089 19.932C101.137 19.836 101.161 19.684 101.161 19.476V12.108C101.161 11.964 101.137 11.86 101.089 11.796C101.041 11.724 100.965 11.68 100.861 11.664L100.333 11.628C100.229 11.604 100.153 11.564 100.105 11.508C100.065 11.452 100.045 11.38 100.045 11.292C100.045 11.188 100.073 11.108 100.129 11.052C100.185 10.996 100.289 10.94 100.441 10.884L103.597 9.876C103.829 9.788 104.009 9.728 104.137 9.696C104.273 9.656 104.405 9.636 104.533 9.636C104.725 9.636 104.869 9.692 104.965 9.804C105.061 9.908 105.109 10.044 105.109 10.212ZM104.749 12.888L104.341 12.468L104.773 12.072C105.749 11.176 106.613 10.544 107.365 10.176C108.125 9.808 108.821 9.624 109.453 9.624C110.373 9.624 111.117 9.916 111.685 10.5C112.261 11.084 112.549 11.916 112.549 12.996V19.452C112.549 19.668 112.577 19.828 112.633 19.932C112.689 20.036 112.781 20.108 112.909 20.148L113.329 20.256C113.441 20.296 113.521 20.348 113.569 20.412C113.625 20.476 113.653 20.548 113.653 20.628C113.653 20.748 113.613 20.84 113.533 20.904C113.461 20.968 113.341 21 113.173 21H108.013C107.693 21 107.533 20.872 107.533 20.616C107.533 20.456 107.625 20.336 107.809 20.256L108.253 20.136C108.381 20.096 108.469 20.024 108.517 19.92C108.573 19.816 108.601 19.66 108.601 19.452V13.5C108.601 12.892 108.465 12.444 108.193 12.156C107.921 11.86 107.545 11.712 107.065 11.712C106.769 11.712 106.457 11.78 106.129 11.916C105.809 12.044 105.497 12.24 105.193 12.504L104.749 12.888ZM119.723 10.212V19.476C119.723 19.684 119.747 19.836 119.795 19.932C119.851 20.028 119.939 20.096 120.059 20.136L120.503 20.256C120.623 20.296 120.707 20.348 120.755 20.412C120.803 20.468 120.827 20.54 120.827 20.628C120.827 20.748 120.787 20.84 120.707 20.904C120.635 20.968 120.519 21 120.359 21H115.139C114.979 21 114.859 20.968 114.779 20.904C114.707 20.84 114.671 20.748 114.671 20.628C114.671 20.548 114.695 20.476 114.743 20.412C114.791 20.348 114.871 20.296 114.983 20.256L115.439 20.136C115.567 20.096 115.655 20.028 115.703 19.932C115.751 19.836 115.775 19.684 115.775 19.476V12.108C115.775 11.964 115.751 11.86 115.703 11.796C115.655 11.724 115.579 11.68 115.475 11.664L114.947 11.628C114.843 11.604 114.767 11.564 114.719 11.508C114.671 11.452 114.647 11.38 114.647 11.292C114.647 11.188 114.675 11.108 114.731 11.052C114.795 10.996 114.903 10.94 115.055 10.884L118.211 9.876C118.451 9.788 118.635 9.728 118.763 9.696C118.899 9.656 119.023 9.636 119.135 9.636C119.327 9.636 119.471 9.692 119.567 9.804C119.671 9.908 119.723 10.044 119.723 10.212ZM117.587 8.352C116.883 8.352 116.319 8.16 115.895 7.776C115.479 7.392 115.271 6.896 115.271 6.288C115.271 5.688 115.483 5.196 115.907 4.812C116.331 4.428 116.891 4.236 117.587 4.236C118.291 4.236 118.855 4.428 119.279 4.812C119.711 5.196 119.927 5.688 119.927 6.288C119.927 6.896 119.711 7.392 119.279 7.776C118.855 8.16 118.291 8.352 117.587 8.352ZM132.799 14.316C132.799 14.62 132.711 14.856 132.535 15.024C132.367 15.192 132.123 15.276 131.803 15.276H124.411V14.58H128.443C128.739 14.58 128.887 14.436 128.887 14.148C128.887 12.892 128.723 11.972 128.395 11.388C128.075 10.804 127.679 10.512 127.207 10.512C126.847 10.512 126.523 10.644 126.235 10.908C125.955 11.164 125.735 11.564 125.575 12.108C125.415 12.652 125.335 13.348 125.335 14.196C125.335 15.764 125.675 16.928 126.355 17.688C127.043 18.44 127.959 18.816 129.103 18.816C129.831 18.816 130.455 18.66 130.975 18.348C131.495 18.028 131.859 17.572 132.067 16.98C132.163 16.86 132.243 16.78 132.307 16.74C132.371 16.7 132.431 16.68 132.487 16.68C132.575 16.68 132.639 16.724 132.679 16.812C132.727 16.892 132.751 16.996 132.751 17.124C132.735 17.884 132.499 18.58 132.043 19.212C131.595 19.844 130.983 20.348 130.207 20.724C129.431 21.092 128.543 21.276 127.543 21.276C126.423 21.276 125.427 21.044 124.555 20.58C123.683 20.116 122.999 19.464 122.503 18.624C122.007 17.784 121.759 16.808 121.759 15.696C121.759 14.472 121.995 13.408 122.467 12.504C122.947 11.592 123.631 10.884 124.519 10.38C125.415 9.876 126.479 9.624 127.711 9.624C128.783 9.624 129.699 9.828 130.459 10.236C131.219 10.644 131.799 11.2 132.199 11.904C132.599 12.608 132.799 13.412 132.799 14.316ZM139.083 3.6V19.476C139.083 19.684 139.107 19.836 139.155 19.932C139.211 20.028 139.299 20.096 139.419 20.136L139.863 20.256C139.983 20.296 140.067 20.348 140.115 20.412C140.163 20.468 140.187 20.54 140.187 20.628C140.187 20.748 140.147 20.84 140.067 20.904C139.995 20.968 139.875 21 139.707 21H134.487C134.335 21 134.219 20.968 134.139 20.904C134.059 20.84 134.019 20.748 134.019 20.628C134.019 20.548 134.043 20.476 134.091 20.412C134.147 20.348 134.235 20.296 134.355 20.256L134.799 20.136C134.919 20.096 135.003 20.028 135.051 19.932C135.107 19.836 135.135 19.684 135.135 19.476V5.496C135.135 5.344 135.111 5.236 135.063 5.172C135.015 5.108 134.939 5.068 134.835 5.052L134.307 5.016C134.203 4.992 134.127 4.952 134.079 4.896C134.031 4.84 134.007 4.768 134.007 4.68C134.007 4.576 134.035 4.496 134.091 4.44C134.155 4.384 134.263 4.328 134.415 4.272L137.571 3.264C137.811 3.176 137.995 3.116 138.123 3.084C138.259 3.044 138.379 3.024 138.483 3.024C138.683 3.024 138.831 3.08 138.927 3.192C139.031 3.296 139.083 3.432 139.083 3.6ZM146.56 3.6V19.476C146.56 19.684 146.584 19.836 146.632 19.932C146.688 20.028 146.776 20.096 146.896 20.136L147.34 20.256C147.46 20.296 147.544 20.348 147.592 20.412C147.64 20.468 147.664 20.54 147.664 20.628C147.664 20.748 147.624 20.84 147.544 20.904C147.472 20.968 147.352 21 147.184 21H141.964C141.812 21 141.696 20.968 141.616 20.904C141.536 20.84 141.496 20.748 141.496 20.628C141.496 20.548 141.52 20.476 141.568 20.412C141.624 20.348 141.712 20.296 141.832 20.256L142.276 20.136C142.396 20.096 142.48 20.028 142.528 19.932C142.584 19.836 142.612 19.684 142.612 19.476V5.496C142.612 5.344 142.588 5.236 142.54 5.172C142.492 5.108 142.416 5.068 142.312 5.052L141.784 5.016C141.68 4.992 141.604 4.952 141.556 4.896C141.508 4.84 141.484 4.768 141.484 4.68C141.484 4.576 141.512 4.496 141.568 4.44C141.632 4.384 141.74 4.328 141.892 4.272L145.048 3.264C145.288 3.176 145.472 3.116 145.6 3.084C145.736 3.044 145.856 3.024 145.96 3.024C146.16 3.024 146.308 3.08 146.404 3.192C146.508 3.296 146.56 3.432 146.56 3.6ZM155.553 19.632V19.428L155.301 19.488V11.664C155.301 11.232 155.197 10.896 154.989 10.656C154.781 10.408 154.493 10.284 154.125 10.284C153.757 10.284 153.469 10.376 153.261 10.56C153.061 10.736 152.961 10.956 152.961 11.22V12.372C152.961 12.9 152.777 13.328 152.409 13.656C152.041 13.976 151.537 14.136 150.897 14.136C150.393 14.136 150.001 14.012 149.721 13.764C149.441 13.516 149.301 13.16 149.301 12.696C149.301 12.224 149.505 11.752 149.913 11.28C150.321 10.808 150.929 10.416 151.737 10.104C152.545 9.792 153.545 9.636 154.737 9.636C156.249 9.636 157.373 9.932 158.109 10.524C158.853 11.116 159.225 11.936 159.225 12.984V19.02C159.225 19.228 159.269 19.388 159.357 19.5C159.445 19.604 159.565 19.656 159.717 19.656C159.861 19.656 159.981 19.616 160.077 19.536C160.181 19.448 160.257 19.332 160.305 19.188C160.337 19.14 160.369 19.104 160.401 19.08C160.433 19.056 160.473 19.044 160.521 19.044C160.593 19.044 160.645 19.072 160.677 19.128C160.717 19.176 160.737 19.244 160.737 19.332C160.737 19.572 160.637 19.844 160.437 20.148C160.245 20.452 159.945 20.716 159.537 20.94C159.129 21.164 158.601 21.276 157.953 21.276C157.177 21.276 156.581 21.124 156.165 20.82C155.757 20.508 155.553 20.112 155.553 19.632ZM148.761 18.54C148.761 17.556 149.189 16.772 150.045 16.188C150.909 15.596 152.197 15.3 153.909 15.3C154.373 15.3 154.769 15.344 155.097 15.432C155.425 15.512 155.709 15.62 155.949 15.756L155.721 16.284C155.497 16.164 155.273 16.076 155.049 16.02C154.833 15.964 154.589 15.936 154.317 15.936C153.813 15.936 153.417 16.108 153.129 16.452C152.849 16.788 152.709 17.276 152.709 17.916C152.709 18.548 152.841 19.024 153.105 19.344C153.377 19.656 153.725 19.812 154.149 19.812C154.453 19.812 154.745 19.736 155.025 19.584C155.305 19.432 155.533 19.232 155.709 18.984L155.925 19.476C155.549 20.052 155.021 20.496 154.341 20.808C153.661 21.12 152.933 21.276 152.157 21.276C151.149 21.276 150.329 21.02 149.697 20.508C149.073 19.996 148.761 19.34 148.761 18.54Z" fill="white"/>
</svg>
