<svg width="161" height="19" viewBox="0 0 161 19" fill="none" xmlns="http://www.w3.org/2000/svg">
<path d="M8.316 2.064L7.632 2.208C7.448 2.256 7.308 2.324 7.212 2.412C7.116 2.5 7.068 2.62 7.068 2.772V16.38C7.068 16.644 7.136 16.828 7.272 16.932C7.416 17.036 7.62 17.088 7.884 17.088H9.348C9.764 17.088 10.148 17.02 10.5 16.884C10.852 16.74 11.192 16.48 11.52 16.104C11.856 15.728 12.2 15.188 12.552 14.484L13.596 12.42C13.668 12.276 13.756 12.18 13.86 12.132C13.964 12.076 14.08 12.068 14.208 12.108C14.352 12.148 14.452 12.22 14.508 12.324C14.564 12.42 14.568 12.552 14.52 12.72L13.38 17.664C13.308 17.92 13.224 18.1 13.128 18.204C13.032 18.316 12.896 18.372 12.72 18.372C12.6 18.372 12.464 18.34 12.312 18.276C12.16 18.22 11.984 18.16 11.784 18.096C11.584 18.032 11.344 18 11.064 18H1.512C1.336 18 1.204 17.964 1.116 17.892C1.028 17.812 0.984 17.712 0.984 17.592C0.984 17.368 1.112 17.216 1.368 17.136L2.052 16.992C2.236 16.944 2.376 16.876 2.472 16.788C2.568 16.7 2.616 16.58 2.616 16.428V2.772C2.616 2.62 2.568 2.5 2.472 2.412C2.376 2.324 2.236 2.256 2.052 2.208L1.368 2.064C1.112 1.984 0.984 1.832 0.984 1.608C0.984 1.48 1.028 1.38 1.116 1.308C1.204 1.236 1.336 1.2 1.512 1.2H8.172C8.356 1.2 8.488 1.236 8.568 1.308C8.656 1.38 8.7 1.48 8.7 1.608C8.7 1.832 8.572 1.984 8.316 2.064ZM20.4651 7.212V16.476C20.4651 16.684 20.4891 16.836 20.5371 16.932C20.5931 17.028 20.6811 17.096 20.8011 17.136L21.2451 17.256C21.3651 17.296 21.4491 17.348 21.4971 17.412C21.5451 17.468 21.5691 17.54 21.5691 17.628C21.5691 17.748 21.5291 17.84 21.4491 17.904C21.3771 17.968 21.2611 18 21.1011 18H15.8811C15.7211 18 15.6011 17.968 15.5211 17.904C15.4491 17.84 15.4131 17.748 15.4131 17.628C15.4131 17.548 15.4371 17.476 15.4851 17.412C15.5331 17.348 15.6131 17.296 15.7251 17.256L16.1811 17.136C16.3091 17.096 16.3971 17.028 16.4451 16.932C16.4931 16.836 16.5171 16.684 16.5171 16.476V9.108C16.5171 8.964 16.4931 8.86 16.4451 8.796C16.3971 8.724 16.3211 8.68 16.2171 8.664L15.6891 8.628C15.5851 8.604 15.5091 8.564 15.4611 8.508C15.4131 8.452 15.3891 8.38 15.3891 8.292C15.3891 8.188 15.4171 8.108 15.4731 8.052C15.5371 7.996 15.6451 7.94 15.7971 7.884L18.9531 6.876C19.1931 6.788 19.3771 6.728 19.5051 6.696C19.6411 6.656 19.7651 6.636 19.8771 6.636C20.0691 6.636 20.2131 6.692 20.3091 6.804C20.4131 6.908 20.4651 7.044 20.4651 7.212ZM18.3291 5.352C17.6251 5.352 17.0611 5.16 16.6371 4.776C16.2211 4.392 16.0131 3.896 16.0131 3.288C16.0131 2.688 16.2251 2.196 16.6491 1.812C17.0731 1.428 17.6331 1.236 18.3291 1.236C19.0331 1.236 19.5971 1.428 20.0211 1.812C20.4531 2.196 20.6691 2.688 20.6691 3.288C20.6691 3.896 20.4531 4.392 20.0211 4.776C19.5971 5.16 19.0331 5.352 18.3291 5.352ZM27.6249 7.212V16.476C27.6249 16.684 27.6489 16.836 27.6969 16.932C27.7529 17.028 27.8409 17.096 27.9609 17.136L28.4049 17.256C28.5809 17.336 28.6689 17.456 28.6689 17.616C28.6689 17.872 28.5089 18 28.1889 18H23.0409C22.8809 18 22.7609 17.968 22.6809 17.904C22.6089 17.84 22.5729 17.748 22.5729 17.628C22.5729 17.548 22.5969 17.476 22.6449 17.412C22.6929 17.348 22.7729 17.296 22.8849 17.256L23.3529 17.136C23.4729 17.096 23.5569 17.028 23.6049 16.932C23.6529 16.836 23.6769 16.684 23.6769 16.476V9.108C23.6769 8.964 23.6529 8.86 23.6049 8.796C23.5569 8.724 23.4809 8.68 23.3769 8.664L22.8489 8.628C22.7449 8.604 22.6689 8.564 22.6209 8.508C22.5809 8.452 22.5609 8.38 22.5609 8.292C22.5609 8.188 22.5889 8.108 22.6449 8.052C22.7009 7.996 22.8049 7.94 22.9569 7.884L26.1129 6.876C26.3449 6.788 26.5249 6.728 26.6529 6.696C26.7889 6.656 26.9209 6.636 27.0489 6.636C27.2409 6.636 27.3849 6.692 27.4809 6.804C27.5769 6.908 27.6249 7.044 27.6249 7.212ZM27.2649 9.888L26.8569 9.468L27.2889 9.072C28.2649 8.176 29.1289 7.544 29.8809 7.176C30.6409 6.808 31.3369 6.624 31.9689 6.624C32.8889 6.624 33.6329 6.916 34.2009 7.5C34.7769 8.084 35.0649 8.916 35.0649 9.996V16.452C35.0649 16.668 35.0929 16.828 35.1489 16.932C35.2049 17.036 35.2969 17.108 35.4249 17.148L35.8449 17.256C35.9569 17.296 36.0369 17.348 36.0849 17.412C36.1409 17.476 36.1689 17.548 36.1689 17.628C36.1689 17.748 36.1289 17.84 36.0489 17.904C35.9769 17.968 35.8569 18 35.6889 18H30.5289C30.2089 18 30.0489 17.872 30.0489 17.616C30.0489 17.456 30.1409 17.336 30.3249 17.256L30.7689 17.136C30.8969 17.096 30.9849 17.024 31.0329 16.92C31.0889 16.816 31.1169 16.66 31.1169 16.452V10.5C31.1169 9.892 30.9809 9.444 30.7089 9.156C30.4369 8.86 30.0609 8.712 29.5809 8.712C29.2849 8.712 28.9729 8.78 28.6449 8.916C28.3249 9.044 28.0129 9.24 27.7089 9.504L27.2649 9.888ZM45.3345 16.296L45.2505 16.248V2.496C45.2505 2.344 45.2265 2.236 45.1785 2.172C45.1305 2.108 45.0545 2.068 44.9505 2.052L44.4225 2.016C44.3185 1.992 44.2425 1.952 44.1945 1.896C44.1545 1.84 44.1345 1.768 44.1345 1.68C44.1345 1.576 44.1625 1.496 44.2185 1.44C44.2745 1.384 44.3785 1.328 44.5305 1.272L47.6865 0.263999C47.9185 0.175999 48.0985 0.115999 48.2265 0.0839996C48.3625 0.0439997 48.4945 0.0239997 48.6225 0.0239997C48.8145 0.0239997 48.9585 0.0799994 49.0545 0.191999C49.1505 0.295999 49.1985 0.431999 49.1985 0.599999V16.476C49.1985 16.684 49.2225 16.836 49.2705 16.932C49.3265 17.028 49.4145 17.096 49.5345 17.136L49.9785 17.256C50.0985 17.296 50.1825 17.348 50.2305 17.412C50.2785 17.468 50.3025 17.54 50.3025 17.628C50.3025 17.748 50.2625 17.84 50.1825 17.904C50.1105 17.968 49.9945 18 49.8345 18H46.4145C46.1105 18 45.8545 17.9 45.6465 17.7C45.4385 17.5 45.3345 17.244 45.3345 16.932V16.296ZM37.1745 12.804C37.1745 11.548 37.4185 10.46 37.9065 9.54C38.3945 8.612 39.0585 7.896 39.8985 7.392C40.7385 6.88 41.6825 6.624 42.7305 6.624C43.6025 6.624 44.3385 6.804 44.9385 7.164C45.5465 7.516 46.0545 8.036 46.4625 8.724L45.7545 9.216C45.4745 8.712 45.1545 8.34 44.7945 8.1C44.4345 7.852 44.0305 7.728 43.5825 7.728C43.1265 7.728 42.7185 7.88 42.3585 8.184C42.0065 8.488 41.7305 8.984 41.5305 9.672C41.3305 10.352 41.2305 11.268 41.2305 12.42C41.2305 13.452 41.3225 14.292 41.5065 14.94C41.6905 15.588 41.9465 16.064 42.2745 16.368C42.6105 16.664 42.9905 16.812 43.4145 16.812C43.8545 16.812 44.2745 16.676 44.6745 16.404C45.0745 16.124 45.4465 15.692 45.7905 15.108L46.2345 15.6C45.6425 16.464 44.9945 17.128 44.2905 17.592C43.5945 18.048 42.8025 18.276 41.9145 18.276C40.9945 18.276 40.1745 18.052 39.4545 17.604C38.7425 17.148 38.1825 16.512 37.7745 15.696C37.3745 14.872 37.1745 13.908 37.1745 12.804ZM58.1233 16.632V16.428L57.8713 16.488V8.664C57.8713 8.232 57.7673 7.896 57.5593 7.656C57.3513 7.408 57.0633 7.284 56.6953 7.284C56.3273 7.284 56.0393 7.376 55.8313 7.56C55.6313 7.736 55.5313 7.956 55.5313 8.22V9.372C55.5313 9.9 55.3473 10.328 54.9793 10.656C54.6113 10.976 54.1073 11.136 53.4673 11.136C52.9633 11.136 52.5713 11.012 52.2913 10.764C52.0113 10.516 51.8713 10.16 51.8713 9.696C51.8713 9.224 52.0753 8.752 52.4833 8.28C52.8913 7.808 53.4993 7.416 54.3073 7.104C55.1153 6.792 56.1153 6.636 57.3073 6.636C58.8193 6.636 59.9433 6.932 60.6793 7.524C61.4233 8.116 61.7953 8.936 61.7953 9.984V16.02C61.7953 16.228 61.8393 16.388 61.9273 16.5C62.0153 16.604 62.1353 16.656 62.2873 16.656C62.4313 16.656 62.5513 16.616 62.6473 16.536C62.7513 16.448 62.8273 16.332 62.8753 16.188C62.9073 16.14 62.9393 16.104 62.9713 16.08C63.0033 16.056 63.0433 16.044 63.0913 16.044C63.1633 16.044 63.2153 16.072 63.2473 16.128C63.2873 16.176 63.3073 16.244 63.3073 16.332C63.3073 16.572 63.2073 16.844 63.0073 17.148C62.8153 17.452 62.5153 17.716 62.1073 17.94C61.6993 18.164 61.1713 18.276 60.5233 18.276C59.7473 18.276 59.1513 18.124 58.7353 17.82C58.3273 17.508 58.1233 17.112 58.1233 16.632ZM51.3313 15.54C51.3313 14.556 51.7593 13.772 52.6153 13.188C53.4793 12.596 54.7673 12.3 56.4793 12.3C56.9433 12.3 57.3393 12.344 57.6673 12.432C57.9953 12.512 58.2793 12.62 58.5193 12.756L58.2913 13.284C58.0673 13.164 57.8433 13.076 57.6193 13.02C57.4033 12.964 57.1593 12.936 56.8873 12.936C56.3833 12.936 55.9873 13.108 55.6993 13.452C55.4193 13.788 55.2793 14.276 55.2793 14.916C55.2793 15.548 55.4113 16.024 55.6753 16.344C55.9473 16.656 56.2953 16.812 56.7193 16.812C57.0233 16.812 57.3153 16.736 57.5953 16.584C57.8753 16.432 58.1033 16.232 58.2793 15.984L58.4953 16.476C58.1193 17.052 57.5913 17.496 56.9113 17.808C56.2313 18.12 55.5033 18.276 54.7273 18.276C53.7193 18.276 52.8993 18.02 52.2673 17.508C51.6433 16.996 51.3313 16.34 51.3313 15.54ZM68.9293 17.592C68.9293 17.368 69.0533 17.216 69.3013 17.136L70.0213 16.98C70.2053 16.932 70.3413 16.864 70.4293 16.776C70.5173 16.688 70.5613 16.568 70.5613 16.416V2.784C70.5613 2.632 70.5173 2.512 70.4293 2.424C70.3413 2.336 70.2093 2.268 70.0333 2.22L69.2893 2.052C69.0493 1.98 68.9293 1.832 68.9293 1.608C68.9293 1.48 68.9733 1.38 69.0613 1.308C69.1493 1.236 69.2813 1.2 69.4573 1.2H76.0933C77.5573 1.2 78.8933 1.416 80.1013 1.848C81.3093 2.272 82.3493 2.884 83.2213 3.684C84.0933 4.484 84.7653 5.452 85.2373 6.588C85.7173 7.716 85.9573 8.984 85.9573 10.392C85.9573 11.92 85.5973 13.256 84.8773 14.4C84.1653 15.536 83.1533 16.42 81.8413 17.052C80.5373 17.684 78.9853 18 77.1853 18H69.4573C69.2813 18 69.1493 17.964 69.0613 17.892C68.9733 17.812 68.9293 17.712 68.9293 17.592ZM76.9093 17.1C77.7653 17.1 78.5253 16.86 79.1893 16.38C79.8533 15.9 80.3733 15.152 80.7493 14.136C81.1333 13.112 81.3253 11.788 81.3253 10.164C81.3253 8.868 81.1973 7.72 80.9413 6.72C80.6933 5.72 80.3253 4.88 79.8373 4.2C79.3573 3.512 78.7773 2.992 78.0973 2.64C77.4253 2.28 76.6653 2.1 75.8173 2.1H75.0253V16.236C75.0253 16.524 75.1053 16.74 75.2653 16.884C75.4253 17.028 75.6613 17.1 75.9733 17.1H76.9093ZM94.0764 16.632V16.428L93.8244 16.488V8.664C93.8244 8.232 93.7204 7.896 93.5124 7.656C93.3044 7.408 93.0164 7.284 92.6484 7.284C92.2804 7.284 91.9924 7.376 91.7844 7.56C91.5844 7.736 91.4844 7.956 91.4844 8.22V9.372C91.4844 9.9 91.3004 10.328 90.9324 10.656C90.5644 10.976 90.0604 11.136 89.4204 11.136C88.9164 11.136 88.5244 11.012 88.2444 10.764C87.9644 10.516 87.8244 10.16 87.8244 9.696C87.8244 9.224 88.0284 8.752 88.4364 8.28C88.8444 7.808 89.4524 7.416 90.2604 7.104C91.0684 6.792 92.0684 6.636 93.2604 6.636C94.7724 6.636 95.8964 6.932 96.6324 7.524C97.3764 8.116 97.7484 8.936 97.7484 9.984V16.02C97.7484 16.228 97.7924 16.388 97.8804 16.5C97.9684 16.604 98.0884 16.656 98.2404 16.656C98.3844 16.656 98.5044 16.616 98.6004 16.536C98.7044 16.448 98.7804 16.332 98.8284 16.188C98.8604 16.14 98.8924 16.104 98.9244 16.08C98.9564 16.056 98.9964 16.044 99.0444 16.044C99.1164 16.044 99.1684 16.072 99.2004 16.128C99.2404 16.176 99.2604 16.244 99.2604 16.332C99.2604 16.572 99.1604 16.844 98.9604 17.148C98.7684 17.452 98.4684 17.716 98.0604 17.94C97.6524 18.164 97.1244 18.276 96.4764 18.276C95.7004 18.276 95.1044 18.124 94.6884 17.82C94.2804 17.508 94.0764 17.112 94.0764 16.632ZM87.2844 15.54C87.2844 14.556 87.7124 13.772 88.5684 13.188C89.4324 12.596 90.7204 12.3 92.4324 12.3C92.8964 12.3 93.2924 12.344 93.6204 12.432C93.9484 12.512 94.2324 12.62 94.4724 12.756L94.2444 13.284C94.0204 13.164 93.7964 13.076 93.5724 13.02C93.3564 12.964 93.1124 12.936 92.8404 12.936C92.3364 12.936 91.9404 13.108 91.6524 13.452C91.3724 13.788 91.2324 14.276 91.2324 14.916C91.2324 15.548 91.3644 16.024 91.6284 16.344C91.9004 16.656 92.2484 16.812 92.6724 16.812C92.9764 16.812 93.2684 16.736 93.5484 16.584C93.8284 16.432 94.0564 16.232 94.2324 15.984L94.4484 16.476C94.0724 17.052 93.5444 17.496 92.8644 17.808C92.1844 18.12 91.4564 18.276 90.6804 18.276C89.6724 18.276 88.8524 18.02 88.2204 17.508C87.5964 16.996 87.2844 16.34 87.2844 15.54ZM105.109 7.212V16.476C105.109 16.684 105.133 16.836 105.181 16.932C105.237 17.028 105.325 17.096 105.445 17.136L105.889 17.256C106.065 17.336 106.153 17.456 106.153 17.616C106.153 17.872 105.993 18 105.673 18H100.525C100.365 18 100.245 17.968 100.165 17.904C100.093 17.84 100.057 17.748 100.057 17.628C100.057 17.548 100.081 17.476 100.129 17.412C100.177 17.348 100.257 17.296 100.369 17.256L100.837 17.136C100.957 17.096 101.041 17.028 101.089 16.932C101.137 16.836 101.161 16.684 101.161 16.476V9.108C101.161 8.964 101.137 8.86 101.089 8.796C101.041 8.724 100.965 8.68 100.861 8.664L100.333 8.628C100.229 8.604 100.153 8.564 100.105 8.508C100.065 8.452 100.045 8.38 100.045 8.292C100.045 8.188 100.073 8.108 100.129 8.052C100.185 7.996 100.289 7.94 100.441 7.884L103.597 6.876C103.829 6.788 104.009 6.728 104.137 6.696C104.273 6.656 104.405 6.636 104.533 6.636C104.725 6.636 104.869 6.692 104.965 6.804C105.061 6.908 105.109 7.044 105.109 7.212ZM104.749 9.888L104.341 9.468L104.773 9.072C105.749 8.176 106.613 7.544 107.365 7.176C108.125 6.808 108.821 6.624 109.453 6.624C110.373 6.624 111.117 6.916 111.685 7.5C112.261 8.084 112.549 8.916 112.549 9.996V16.452C112.549 16.668 112.577 16.828 112.633 16.932C112.689 17.036 112.781 17.108 112.909 17.148L113.329 17.256C113.441 17.296 113.521 17.348 113.569 17.412C113.625 17.476 113.653 17.548 113.653 17.628C113.653 17.748 113.613 17.84 113.533 17.904C113.461 17.968 113.341 18 113.173 18H108.013C107.693 18 107.533 17.872 107.533 17.616C107.533 17.456 107.625 17.336 107.809 17.256L108.253 17.136C108.381 17.096 108.469 17.024 108.517 16.92C108.573 16.816 108.601 16.66 108.601 16.452V10.5C108.601 9.892 108.465 9.444 108.193 9.156C107.921 8.86 107.545 8.712 107.065 8.712C106.769 8.712 106.457 8.78 106.129 8.916C105.809 9.044 105.497 9.24 105.193 9.504L104.749 9.888ZM119.723 7.212V16.476C119.723 16.684 119.747 16.836 119.795 16.932C119.851 17.028 119.939 17.096 120.059 17.136L120.503 17.256C120.623 17.296 120.707 17.348 120.755 17.412C120.803 17.468 120.827 17.54 120.827 17.628C120.827 17.748 120.787 17.84 120.707 17.904C120.635 17.968 120.519 18 120.359 18H115.139C114.979 18 114.859 17.968 114.779 17.904C114.707 17.84 114.671 17.748 114.671 17.628C114.671 17.548 114.695 17.476 114.743 17.412C114.791 17.348 114.871 17.296 114.983 17.256L115.439 17.136C115.567 17.096 115.655 17.028 115.703 16.932C115.751 16.836 115.775 16.684 115.775 16.476V9.108C115.775 8.964 115.751 8.86 115.703 8.796C115.655 8.724 115.579 8.68 115.475 8.664L114.947 8.628C114.843 8.604 114.767 8.564 114.719 8.508C114.671 8.452 114.647 8.38 114.647 8.292C114.647 8.188 114.675 8.108 114.731 8.052C114.795 7.996 114.903 7.94 115.055 7.884L118.211 6.876C118.451 6.788 118.635 6.728 118.763 6.696C118.899 6.656 119.023 6.636 119.135 6.636C119.327 6.636 119.471 6.692 119.567 6.804C119.671 6.908 119.723 7.044 119.723 7.212ZM117.587 5.352C116.883 5.352 116.319 5.16 115.895 4.776C115.479 4.392 115.271 3.896 115.271 3.288C115.271 2.688 115.483 2.196 115.907 1.812C116.331 1.428 116.891 1.236 117.587 1.236C118.291 1.236 118.855 1.428 119.279 1.812C119.711 2.196 119.927 2.688 119.927 3.288C119.927 3.896 119.711 4.392 119.279 4.776C118.855 5.16 118.291 5.352 117.587 5.352ZM132.799 11.316C132.799 11.62 132.711 11.856 132.535 12.024C132.367 12.192 132.123 12.276 131.803 12.276H124.411V11.58H128.443C128.739 11.58 128.887 11.436 128.887 11.148C128.887 9.892 128.723 8.972 128.395 8.388C128.075 7.804 127.679 7.512 127.207 7.512C126.847 7.512 126.523 7.644 126.235 7.908C125.955 8.164 125.735 8.564 125.575 9.108C125.415 9.652 125.335 10.348 125.335 11.196C125.335 12.764 125.675 13.928 126.355 14.688C127.043 15.44 127.959 15.816 129.103 15.816C129.831 15.816 130.455 15.66 130.975 15.348C131.495 15.028 131.859 14.572 132.067 13.98C132.163 13.86 132.243 13.78 132.307 13.74C132.371 13.7 132.431 13.68 132.487 13.68C132.575 13.68 132.639 13.724 132.679 13.812C132.727 13.892 132.751 13.996 132.751 14.124C132.735 14.884 132.499 15.58 132.043 16.212C131.595 16.844 130.983 17.348 130.207 17.724C129.431 18.092 128.543 18.276 127.543 18.276C126.423 18.276 125.427 18.044 124.555 17.58C123.683 17.116 122.999 16.464 122.503 15.624C122.007 14.784 121.759 13.808 121.759 12.696C121.759 11.472 121.995 10.408 122.467 9.504C122.947 8.592 123.631 7.884 124.519 7.38C125.415 6.876 126.479 6.624 127.711 6.624C128.783 6.624 129.699 6.828 130.459 7.236C131.219 7.644 131.799 8.2 132.199 8.904C132.599 9.608 132.799 10.412 132.799 11.316ZM139.083 0.599999V16.476C139.083 16.684 139.107 16.836 139.155 16.932C139.211 17.028 139.299 17.096 139.419 17.136L139.863 17.256C139.983 17.296 140.067 17.348 140.115 17.412C140.163 17.468 140.187 17.54 140.187 17.628C140.187 17.748 140.147 17.84 140.067 17.904C139.995 17.968 139.875 18 139.707 18H134.487C134.335 18 134.219 17.968 134.139 17.904C134.059 17.84 134.019 17.748 134.019 17.628C134.019 17.548 134.043 17.476 134.091 17.412C134.147 17.348 134.235 17.296 134.355 17.256L134.799 17.136C134.919 17.096 135.003 17.028 135.051 16.932C135.107 16.836 135.135 16.684 135.135 16.476V2.496C135.135 2.344 135.111 2.236 135.063 2.172C135.015 2.108 134.939 2.068 134.835 2.052L134.307 2.016C134.203 1.992 134.127 1.952 134.079 1.896C134.031 1.84 134.007 1.768 134.007 1.68C134.007 1.576 134.035 1.496 134.091 1.44C134.155 1.384 134.263 1.328 134.415 1.272L137.571 0.263999C137.811 0.175999 137.995 0.115999 138.123 0.0839996C138.259 0.0439997 138.379 0.0239997 138.483 0.0239997C138.683 0.0239997 138.831 0.0799994 138.927 0.191999C139.031 0.295999 139.083 0.431999 139.083 0.599999ZM146.56 0.599999V16.476C146.56 16.684 146.584 16.836 146.632 16.932C146.688 17.028 146.776 17.096 146.896 17.136L147.34 17.256C147.46 17.296 147.544 17.348 147.592 17.412C147.64 17.468 147.664 17.54 147.664 17.628C147.664 17.748 147.624 17.84 147.544 17.904C147.472 17.968 147.352 18 147.184 18H141.964C141.812 18 141.696 17.968 141.616 17.904C141.536 17.84 141.496 17.748 141.496 17.628C141.496 17.548 141.52 17.476 141.568 17.412C141.624 17.348 141.712 17.296 141.832 17.256L142.276 17.136C142.396 17.096 142.48 17.028 142.528 16.932C142.584 16.836 142.612 16.684 142.612 16.476V2.496C142.612 2.344 142.588 2.236 142.54 2.172C142.492 2.108 142.416 2.068 142.312 2.052L141.784 2.016C141.68 1.992 141.604 1.952 141.556 1.896C141.508 1.84 141.484 1.768 141.484 1.68C141.484 1.576 141.512 1.496 141.568 1.44C141.632 1.384 141.74 1.328 141.892 1.272L145.048 0.263999C145.288 0.175999 145.472 0.115999 145.6 0.0839996C145.736 0.0439997 145.856 0.0239997 145.96 0.0239997C146.16 0.0239997 146.308 0.0799994 146.404 0.191999C146.508 0.295999 146.56 0.431999 146.56 0.599999ZM155.553 16.632V16.428L155.301 16.488V8.664C155.301 8.232 155.197 7.896 154.989 7.656C154.781 7.408 154.493 7.284 154.125 7.284C153.757 7.284 153.469 7.376 153.261 7.56C153.061 7.736 152.961 7.956 152.961 8.22V9.372C152.961 9.9 152.777 10.328 152.409 10.656C152.041 10.976 151.537 11.136 150.897 11.136C150.393 11.136 150.001 11.012 149.721 10.764C149.441 10.516 149.301 10.16 149.301 9.696C149.301 9.224 149.505 8.752 149.913 8.28C150.321 7.808 150.929 7.416 151.737 7.104C152.545 6.792 153.545 6.636 154.737 6.636C156.249 6.636 157.373 6.932 158.109 7.524C158.853 8.116 159.225 8.936 159.225 9.984V16.02C159.225 16.228 159.269 16.388 159.357 16.5C159.445 16.604 159.565 16.656 159.717 16.656C159.861 16.656 159.981 16.616 160.077 16.536C160.181 16.448 160.257 16.332 160.305 16.188C160.337 16.14 160.369 16.104 160.401 16.08C160.433 16.056 160.473 16.044 160.521 16.044C160.593 16.044 160.645 16.072 160.677 16.128C160.717 16.176 160.737 16.244 160.737 16.332C160.737 16.572 160.637 16.844 160.437 17.148C160.245 17.452 159.945 17.716 159.537 17.94C159.129 18.164 158.601 18.276 157.953 18.276C157.177 18.276 156.581 18.124 156.165 17.82C155.757 17.508 155.553 17.112 155.553 16.632ZM148.761 15.54C148.761 14.556 149.189 13.772 150.045 13.188C150.909 12.596 152.197 12.3 153.909 12.3C154.373 12.3 154.769 12.344 155.097 12.432C155.425 12.512 155.709 12.62 155.949 12.756L155.721 13.284C155.497 13.164 155.273 13.076 155.049 13.02C154.833 12.964 154.589 12.936 154.317 12.936C153.813 12.936 153.417 13.108 153.129 13.452C152.849 13.788 152.709 14.276 152.709 14.916C152.709 15.548 152.841 16.024 153.105 16.344C153.377 16.656 153.725 16.812 154.149 16.812C154.453 16.812 154.745 16.736 155.025 16.584C155.305 16.432 155.533 16.232 155.709 15.984L155.925 16.476C155.549 17.052 155.021 17.496 154.341 17.808C153.661 18.12 152.933 18.276 152.157 18.276C151.149 18.276 150.329 18.02 149.697 17.508C149.073 16.996 148.761 16.34 148.761 15.54Z" fill="#2C2A26"/>
</svg>
